<?xml version="1.0" encoding="utf-8" standalone="no"?>
<!DOCTYPE svg PUBLIC "-//W3C//DTD SVG 1.1//EN"
  "http://www.w3.org/Graphics/SVG/1.1/DTD/svg11.dtd">
<!-- Created with matplotlib (https://matplotlib.org/) -->
<svg height="144pt" version="1.1" viewBox="0 0 144 144" width="144pt" xmlns="http://www.w3.org/2000/svg" xmlns:xlink="http://www.w3.org/1999/xlink">
 <defs>
  <style type="text/css">
*{stroke-linecap:butt;stroke-linejoin:round;}
  </style>
 </defs>
 <g id="figure_1">
  <g id="patch_1">
   <path d="M 0 144 
L 144 144 
L 144 0 
L 0 0 
z
" style="fill:#ffffff;"/>
  </g>
  <g id="axes_1">
   <g id="patch_2">
    <path d="M 18 126 
L 129.6 126 
L 129.6 17.28 
L 18 17.28 
z
" style="fill:#ffffff;"/>
   </g>
   <g id="matplotlib.axis_1">
    <g id="xtick_1">
     <g id="line2d_1">
      <defs>
       <path d="M 0 0 
L 0 3.5 
" id="m521fef3671" style="stroke:#000000;stroke-width:0.8;"/>
      </defs>
      <g>
       <use style="stroke:#000000;stroke-width:0.8;" x="23.072727" xlink:href="#m521fef3671" y="126"/>
      </g>
     </g>
     <g id="text_1">
      <!-- 0.0 -->
      <defs>
       <path d="M 31.78125 66.40625 
Q 24.171875 66.40625 20.328125 58.90625 
Q 16.5 51.421875 16.5 36.375 
Q 16.5 21.390625 20.328125 13.890625 
Q 24.171875 6.390625 31.78125 6.390625 
Q 39.453125 6.390625 43.28125 13.890625 
Q 47.125 21.390625 47.125 36.375 
Q 47.125 51.421875 43.28125 58.90625 
Q 39.453125 66.40625 31.78125 66.40625 
z
M 31.78125 74.21875 
Q 44.046875 74.21875 50.515625 64.515625 
Q 56.984375 54.828125 56.984375 36.375 
Q 56.984375 17.96875 50.515625 8.265625 
Q 44.046875 -1.421875 31.78125 -1.421875 
Q 19.53125 -1.421875 13.0625 8.265625 
Q 6.59375 17.96875 6.59375 36.375 
Q 6.59375 54.828125 13.0625 64.515625 
Q 19.53125 74.21875 31.78125 74.21875 
z
" id="DejaVuSans-48"/>
       <path d="M 10.6875 12.40625 
L 21 12.40625 
L 21 0 
L 10.6875 0 
z
" id="DejaVuSans-46"/>
      </defs>
      <g transform="translate(15.121165 140.598437)scale(0.1 -0.1)">
       <use xlink:href="#DejaVuSans-48"/>
       <use x="63.623047" xlink:href="#DejaVuSans-46"/>
       <use x="95.410156" xlink:href="#DejaVuSans-48"/>
      </g>
     </g>
    </g>
    <g id="xtick_2">
     <g id="line2d_2">
      <g>
       <use style="stroke:#000000;stroke-width:0.8;" x="73.8" xlink:href="#m521fef3671" y="126"/>
      </g>
     </g>
     <g id="text_2">
      <!-- 0.5 -->
      <defs>
       <path d="M 10.796875 72.90625 
L 49.515625 72.90625 
L 49.515625 64.59375 
L 19.828125 64.59375 
L 19.828125 46.734375 
Q 21.96875 47.46875 24.109375 47.828125 
Q 26.265625 48.1875 28.421875 48.1875 
Q 40.625 48.1875 47.75 41.5 
Q 54.890625 34.8125 54.890625 23.390625 
Q 54.890625 11.625 47.5625 5.09375 
Q 40.234375 -1.421875 26.90625 -1.421875 
Q 22.3125 -1.421875 17.546875 -0.640625 
Q 12.796875 0.140625 7.71875 1.703125 
L 7.71875 11.625 
Q 12.109375 9.234375 16.796875 8.0625 
Q 21.484375 6.890625 26.703125 6.890625 
Q 35.15625 6.890625 40.078125 11.328125 
Q 45.015625 15.765625 45.015625 23.390625 
Q 45.015625 31 40.078125 35.4375 
Q 35.15625 39.890625 26.703125 39.890625 
Q 22.75 39.890625 18.8125 39.015625 
Q 14.890625 38.140625 10.796875 36.28125 
z
" id="DejaVuSans-53"/>
      </defs>
      <g transform="translate(65.848437 140.598437)scale(0.1 -0.1)">
       <use xlink:href="#DejaVuSans-48"/>
       <use x="63.623047" xlink:href="#DejaVuSans-46"/>
       <use x="95.410156" xlink:href="#DejaVuSans-53"/>
      </g>
     </g>
    </g>
    <g id="xtick_3">
     <g id="line2d_3">
      <g>
       <use style="stroke:#000000;stroke-width:0.8;" x="124.527273" xlink:href="#m521fef3671" y="126"/>
      </g>
     </g>
     <g id="text_3">
      <!-- 1.0 -->
      <defs>
       <path d="M 12.40625 8.296875 
L 28.515625 8.296875 
L 28.515625 63.921875 
L 10.984375 60.40625 
L 10.984375 69.390625 
L 28.421875 72.90625 
L 38.28125 72.90625 
L 38.28125 8.296875 
L 54.390625 8.296875 
L 54.390625 0 
L 12.40625 0 
z
" id="DejaVuSans-49"/>
      </defs>
      <g transform="translate(116.57571 140.598437)scale(0.1 -0.1)">
       <use xlink:href="#DejaVuSans-49"/>
       <use x="63.623047" xlink:href="#DejaVuSans-46"/>
       <use x="95.410156" xlink:href="#DejaVuSans-48"/>
      </g>
     </g>
    </g>
   </g>
   <g id="matplotlib.axis_2">
    <g id="ytick_1">
     <g id="line2d_4">
      <defs>
       <path d="M 0 0 
L -3.5 0 
" id="me86c057732" style="stroke:#000000;stroke-width:0.8;"/>
      </defs>
      <g>
       <use style="stroke:#000000;stroke-width:0.8;" x="18" xlink:href="#me86c057732" y="121.058182"/>
      </g>
     </g>
     <g id="text_4">
      <!-- 0.0 -->
      <g transform="translate(-4.903125 124.857401)scale(0.1 -0.1)">
       <use xlink:href="#DejaVuSans-48"/>
       <use x="63.623047" xlink:href="#DejaVuSans-46"/>
       <use x="95.410156" xlink:href="#DejaVuSans-48"/>
      </g>
     </g>
    </g>
    <g id="ytick_2">
     <g id="line2d_5">
      <g>
       <use style="stroke:#000000;stroke-width:0.8;" x="18" xlink:href="#me86c057732" y="71.64"/>
      </g>
     </g>
     <g id="text_5">
      <!-- 0.5 -->
      <g transform="translate(-4.903125 75.439219)scale(0.1 -0.1)">
       <use xlink:href="#DejaVuSans-48"/>
       <use x="63.623047" xlink:href="#DejaVuSans-46"/>
       <use x="95.410156" xlink:href="#DejaVuSans-53"/>
      </g>
     </g>
    </g>
    <g id="ytick_3">
     <g id="line2d_6">
      <g>
       <use style="stroke:#000000;stroke-width:0.8;" x="18" xlink:href="#me86c057732" y="22.221818"/>
      </g>
     </g>
     <g id="text_6">
      <!-- 1.0 -->
      <g transform="translate(-4.903125 26.021037)scale(0.1 -0.1)">
       <use xlink:href="#DejaVuSans-49"/>
       <use x="63.623047" xlink:href="#DejaVuSans-46"/>
       <use x="95.410156" xlink:href="#DejaVuSans-48"/>
      </g>
     </g>
    </g>
   </g>
   <g id="line2d_7">
    <path clip-path="url(#p81a8431ff9)" d="M 23.072727 121.058182 
L 23.072727 119.227879 
L 23.072727 60.658182 
L 25.814742 60.658182 
L 25.814742 51.506667 
L 34.040786 51.506667 
L 34.040786 47.846061 
L 39.524816 47.846061 
L 39.524816 46.015758 
L 47.75086 46.015758 
L 47.75086 44.185455 
L 50.492875 44.185455 
L 50.492875 42.355152 
L 55.976904 42.355152 
L 55.976904 36.864242 
L 61.460934 36.864242 
L 61.460934 35.033939 
L 64.202948 35.033939 
L 64.202948 33.203636 
L 75.171007 33.203636 
L 75.171007 31.373333 
L 86.139066 31.373333 
L 86.139066 29.54303 
L 91.623096 29.54303 
L 91.623096 27.712727 
L 94.365111 27.712727 
L 94.365111 22.221818 
L 124.527273 22.221818 
" style="fill:none;stroke:#1f77b4;stroke-linecap:square;stroke-opacity:0.3;stroke-width:2;"/>
   </g>
   <g id="line2d_8">
    <path clip-path="url(#p81a8431ff9)" d="M 23.072727 121.058182 
L 23.072727 119.227879 
L 23.072727 113.73697 
L 25.814742 113.73697 
L 25.814742 111.906667 
L 28.556757 111.906667 
L 28.556757 82.621818 
L 36.782801 82.621818 
L 36.782801 67.979394 
L 39.524816 67.979394 
L 39.524816 58.827879 
L 42.26683 58.827879 
L 42.26683 56.997576 
L 45.008845 56.997576 
L 45.008845 44.185455 
L 47.75086 44.185455 
L 47.75086 38.694545 
L 50.492875 38.694545 
L 50.492875 35.033939 
L 53.234889 35.033939 
L 53.234889 29.54303 
L 61.460934 29.54303 
L 61.460934 25.882424 
L 72.428993 25.882424 
L 72.428993 24.052121 
L 75.171007 24.052121 
L 75.171007 22.221818 
L 124.527273 22.221818 
" style="fill:none;stroke:#ff7f0e;stroke-linecap:square;stroke-opacity:0.3;stroke-width:2;"/>
   </g>
   <g id="line2d_9">
    <path clip-path="url(#p81a8431ff9)" d="M 23.072727 121.058182 
L 23.072727 119.227879 
L 23.072727 100.924848 
L 25.814742 100.924848 
L 25.814742 78.961212 
L 28.556757 78.961212 
L 28.556757 56.997576 
L 31.298771 56.997576 
L 31.298771 46.015758 
L 34.040786 46.015758 
L 34.040786 27.712727 
L 36.782801 27.712727 
L 36.782801 25.882424 
L 47.75086 25.882424 
L 47.75086 24.052121 
L 77.913022 24.052121 
L 77.913022 22.221818 
L 124.527273 22.221818 
" style="fill:none;stroke:#2ca02c;stroke-linecap:square;stroke-opacity:0.3;stroke-width:2;"/>
   </g>
   <g id="line2d_10">
    <path clip-path="url(#p81a8431ff9)" d="M 23.072727 121.058182 
L 23.072727 119.227879 
L 23.072727 49.676364 
L 25.890909 49.676364 
L 25.890909 33.203636 
L 37.163636 33.203636 
L 37.163636 31.373333 
L 39.981818 31.373333 
L 39.981818 29.54303 
L 48.436364 29.54303 
L 48.436364 27.712727 
L 51.254545 27.712727 
L 51.254545 25.882424 
L 62.527273 25.882424 
L 62.527273 24.052121 
L 79.436364 24.052121 
L 79.436364 22.221818 
L 124.527273 22.221818 
" style="fill:none;stroke:#d62728;stroke-linecap:square;stroke-opacity:0.3;stroke-width:2;"/>
   </g>
   <g id="line2d_11">
    <path clip-path="url(#p81a8431ff9)" d="M 23.072727 121.058182 
L 23.072727 119.227879 
L 23.072727 62.488485 
L 25.890909 62.488485 
L 25.890909 51.506667 
L 28.709091 51.506667 
L 28.709091 42.355152 
L 31.527273 42.355152 
L 31.527273 40.524848 
L 34.345455 40.524848 
L 34.345455 31.373333 
L 37.163636 31.373333 
L 37.163636 29.54303 
L 39.981818 29.54303 
L 39.981818 27.712727 
L 45.618182 27.712727 
L 45.618182 24.052121 
L 96.345455 24.052121 
L 96.345455 22.221818 
L 124.527273 22.221818 
" style="fill:none;stroke:#9467bd;stroke-linecap:square;stroke-opacity:0.3;stroke-width:2;"/>
   </g>
   <g id="line2d_12">
    <path clip-path="url(#p81a8431ff9)" d="M 23.072727 121.058182 
L 124.527273 22.221818 
" style="fill:none;stroke:#000000;stroke-dasharray:7.4,3.2;stroke-dashoffset:0;stroke-width:2;"/>
   </g>
   <g id="line2d_13">
    <path clip-path="url(#p81a8431ff9)" d="M 23.072727 75.300606 
L 24.097521 75.300606 
L 25.122314 75.300606 
L 26.147107 64.135758 
L 27.171901 64.135758 
L 28.196694 64.135758 
L 29.221488 54.435152 
L 30.246281 54.435152 
L 31.271074 54.435152 
L 32.295868 52.421818 
L 33.320661 52.421818 
L 34.345455 45.649697 
L 35.370248 45.649697 
L 36.395041 45.649697 
L 37.419835 42.172121 
L 38.444628 42.172121 
L 39.469421 42.172121 
L 40.494215 38.694545 
L 41.519008 38.694545 
L 42.543802 37.230303 
L 43.568595 37.230303 
L 44.593388 37.230303 
L 45.618182 33.752727 
L 46.642975 33.752727 
L 47.667769 33.752727 
L 48.692562 31.922424 
L 49.717355 31.922424 
L 50.742149 30.641212 
L 51.766942 30.092121 
L 52.791736 30.092121 
L 53.816529 29.36 
L 54.841322 29.17697 
L 55.866116 29.17697 
L 56.890909 28.444848 
L 57.915702 28.444848 
L 58.940496 28.078788 
L 59.965289 28.078788 
L 60.990083 28.078788 
L 62.014876 26.980606 
L 63.039669 26.797576 
L 64.064463 26.797576 
L 65.089256 26.614545 
L 66.11405 26.431515 
L 67.138843 26.248485 
L 68.163636 26.248485 
L 69.18843 26.248485 
L 70.213223 26.248485 
L 71.238017 26.248485 
L 72.26281 26.248485 
L 73.287603 26.065455 
L 74.312397 26.065455 
L 75.33719 25.516364 
L 76.361983 25.516364 
L 77.386777 25.516364 
L 78.41157 24.601212 
L 79.436364 24.418182 
L 80.461157 24.418182 
L 81.48595 24.235152 
L 82.510744 24.235152 
L 83.535537 24.052121 
L 84.560331 24.052121 
L 85.585124 24.052121 
L 86.609917 23.869091 
L 87.634711 23.869091 
L 88.659504 23.869091 
L 89.684298 23.869091 
L 90.709091 23.869091 
L 91.733884 23.686061 
L 92.758678 23.686061 
L 93.783471 23.686061 
L 94.808264 22.953939 
L 95.833058 22.953939 
L 96.857851 22.770909 
L 97.882645 22.587879 
L 98.907438 22.587879 
L 99.932231 22.587879 
L 100.957025 22.587879 
L 101.981818 22.587879 
L 103.006612 22.587879 
L 104.031405 22.587879 
L 105.056198 22.404848 
L 106.080992 22.221818 
L 107.105785 22.221818 
L 108.130579 22.221818 
L 109.155372 22.221818 
L 110.180165 22.221818 
L 111.204959 22.221818 
L 112.229752 22.221818 
L 113.254545 22.221818 
L 114.279339 22.221818 
L 115.304132 22.221818 
L 116.328926 22.221818 
L 117.353719 22.221818 
L 118.378512 22.221818 
L 119.403306 22.221818 
L 120.428099 22.221818 
L 121.452893 22.221818 
L 122.477686 22.221818 
L 123.502479 22.221818 
L 124.527273 22.221818 
" style="fill:none;stroke:#0000ff;stroke-linecap:square;stroke-width:2;"/>
   </g>
   <g id="patch_3">
    <path d="M 18 126 
L 18 17.28 
" style="fill:none;stroke:#000000;stroke-linecap:square;stroke-linejoin:miter;stroke-width:0.8;"/>
   </g>
   <g id="patch_4">
    <path d="M 18 126 
L 129.6 126 
" style="fill:none;stroke:#000000;stroke-linecap:square;stroke-linejoin:miter;stroke-width:0.8;"/>
   </g>
  </g>
 </g>
 <defs>
  <clipPath id="p81a8431ff9">
   <rect height="108.72" width="111.6" x="18" y="17.28"/>
  </clipPath>
 </defs>
</svg>
