<?xml version="1.0" encoding="utf-8" standalone="no"?>
<!DOCTYPE svg PUBLIC "-//W3C//DTD SVG 1.1//EN"
  "http://www.w3.org/Graphics/SVG/1.1/DTD/svg11.dtd">
<!-- Created with matplotlib (https://matplotlib.org/) -->
<svg height="216pt" version="1.1" viewBox="0 0 216 216" width="216pt" xmlns="http://www.w3.org/2000/svg" xmlns:xlink="http://www.w3.org/1999/xlink">
 <defs>
  <style type="text/css">
*{stroke-linecap:butt;stroke-linejoin:round;}
  </style>
 </defs>
 <g id="figure_1">
  <g id="patch_1">
   <path d="M 0 216 
L 216 216 
L 216 0 
L 0 0 
z
" style="fill:#ffffff;"/>
  </g>
  <g id="axes_1">
   <g id="patch_2">
    <path d="M 27 189 
L 194.4 189 
L 194.4 25.92 
L 27 25.92 
z
" style="fill:#ffffff;"/>
   </g>
   <g id="PolyCollection_1">
    <defs>
     <path d="M 34.609091 -182.667273 
L 34.609091 -182.667273 
L 34.709696 -182.667273 
L 34.709696 -173.52218 
L 34.810301 -173.52218 
L 34.810301 -172.361647 
L 34.843836 -172.361647 
L 34.843836 -172.361647 
L 34.910906 -172.361647 
L 34.910906 -170.661127 
L 35.045046 -170.661127 
L 35.045046 -170.661127 
L 35.816351 -170.661127 
L 35.816351 -168.881466 
L 36.051096 -168.881466 
L 36.051096 -167.1197 
L 36.151701 -167.1197 
L 36.151701 -167.1197 
L 36.185236 -167.1197 
L 36.185236 -167.1197 
L 36.218771 -167.1197 
L 36.218771 -165.328257 
L 36.520586 -165.328257 
L 36.520586 -165.328257 
L 36.822401 -165.328257 
L 36.822401 -165.328257 
L 37.090681 -165.328257 
L 37.090681 -165.328257 
L 37.358961 -165.328257 
L 37.358961 -163.485641 
L 37.694311 -163.485641 
L 37.694311 -163.485641 
L 37.761381 -163.485641 
L 37.761381 -163.485641 
L 38.331476 -163.485641 
L 38.331476 -161.624027 
L 38.666826 -161.624027 
L 38.666826 -161.624027 
L 38.767431 -161.624027 
L 38.767431 -159.771212 
L 39.236921 -159.771212 
L 39.236921 -157.952252 
L 39.404596 -157.952252 
L 39.404596 -157.952252 
L 39.706411 -157.952252 
L 39.706411 -157.952252 
L 40.075295 -157.952252 
L 40.075295 -154.228012 
L 40.37711 -154.228012 
L 40.37711 -152.407626 
L 40.544785 -152.407626 
L 40.544785 -150.610358 
L 40.880135 -150.610358 
L 40.880135 -150.610358 
L 41.45023 -150.610358 
L 41.45023 -148.804839 
L 42.221535 -148.804839 
L 42.221535 -148.804839 
L 42.489815 -148.804839 
L 42.489815 -146.989787 
L 44.367775 -146.989787 
L 44.367775 -146.989787 
L 45.40736 -146.989787 
L 45.40736 -145.163949 
L 45.977455 -145.163949 
L 45.977455 -143.356935 
L 46.514015 -143.356935 
L 46.514015 -143.356935 
L 46.648155 -143.356935 
L 46.648155 -143.356935 
L 47.117645 -143.356935 
L 47.117645 -141.504679 
L 47.452995 -141.504679 
L 47.452995 -139.670648 
L 48.995605 -139.670648 
L 48.995605 -137.853374 
L 49.16328 -137.853374 
L 49.16328 -136.051625 
L 49.29742 -136.051625 
L 49.29742 -136.051625 
L 49.63277 -136.051625 
L 49.63277 -136.051625 
L 50.10226 -136.051625 
L 50.10226 -136.051625 
L 50.30347 -136.051625 
L 50.30347 -136.051625 
L 51.84608 -136.051625 
L 51.84608 -136.051625 
L 52.282035 -136.051625 
L 52.282035 -134.089602 
L 53.656969 -134.089602 
L 53.656969 -134.089602 
L 54.998369 -134.089602 
L 54.998369 -134.089602 
L 55.669069 -134.089602 
L 55.669069 -134.089602 
L 57.379354 -134.089602 
L 57.379354 -134.089602 
L 57.580564 -134.089602 
L 57.580564 -131.982586 
L 57.915914 -131.982586 
L 57.915914 -131.982586 
L 59.056104 -131.982586 
L 59.056104 -129.85471 
L 59.290849 -129.85471 
L 59.290849 -129.85471 
L 59.458524 -129.85471 
L 59.458524 -129.85471 
L 59.626199 -129.85471 
L 59.626199 -129.85471 
L 59.894479 -129.85471 
L 59.894479 -127.603397 
L 60.062154 -127.603397 
L 60.062154 -125.380398 
L 60.363969 -125.380398 
L 60.363969 -125.380398 
L 61.269414 -125.380398 
L 61.269414 -125.380398 
L 61.403554 -125.380398 
L 61.403554 -125.380398 
L 61.604764 -125.380398 
L 61.604764 -123.01441 
L 62.174859 -123.01441 
L 62.174859 -123.01441 
L 62.409604 -123.01441 
L 62.409604 -123.01441 
L 62.845559 -123.01441 
L 62.845559 -123.01441 
L 64.119889 -123.01441 
L 64.119889 -123.01441 
L 64.254029 -123.01441 
L 64.254029 -123.01441 
L 65.830173 -123.01441 
L 65.830173 -123.01441 
L 66.802688 -123.01441 
L 66.802688 -123.01441 
L 68.110553 -123.01441 
L 68.110553 -120.170286 
L 69.485488 -120.170286 
L 69.485488 -120.170286 
L 72.939593 -120.170286 
L 72.939593 -120.170286 
L 74.348063 -120.170286 
L 74.348063 -120.170286 
L 74.985228 -120.170286 
L 74.985228 -120.170286 
L 75.119368 -120.170286 
L 75.119368 -120.170286 
L 75.253508 -120.170286 
L 75.253508 -120.170286 
L 79.110032 -120.170286 
L 79.110032 -120.170286 
L 79.579522 -120.170286 
L 79.579522 -120.170286 
L 79.646592 -120.170286 
L 79.646592 -120.170286 
L 80.015477 -120.170286 
L 80.015477 -120.170286 
L 81.759297 -120.170286 
L 81.759297 -120.170286 
L 83.000092 -120.170286 
L 83.000092 -115.983206 
L 93.060591 -115.983206 
L 93.060591 -115.983206 
L 93.429476 -115.983206 
L 93.429476 -115.983206 
L 98.224981 -115.983206 
L 98.224981 -115.983206 
L 98.694471 -115.983206 
L 98.694471 -111.336928 
L 99.432241 -111.336928 
L 99.432241 -111.336928 
L 103.557046 -111.336928 
L 103.557046 -111.336928 
L 112.77917 -111.336928 
L 112.77917 -111.336928 
L 117.977094 -111.336928 
L 117.977094 -111.336928 
L 122.504319 -111.336928 
L 122.504319 -111.336928 
L 124.281674 -111.336928 
L 124.281674 -111.336928 
L 125.052979 -111.336928 
L 125.052979 -111.336928 
L 125.153584 -111.336928 
L 125.153584 -104.498844 
L 130.049693 -104.498844 
L 130.049693 -104.498844 
L 137.561533 -104.498844 
L 137.561533 -104.498844 
L 139.707773 -104.498844 
L 139.707773 -104.498844 
L 140.344938 -104.498844 
L 140.344938 -96.366645 
L 140.680288 -96.366645 
L 140.680288 -88.99924 
L 141.921083 -88.99924 
L 141.921083 -88.99924 
L 142.491178 -88.99924 
L 142.491178 -88.99924 
L 142.558248 -88.99924 
L 142.558248 -88.99924 
L 144.905697 -88.99924 
L 144.905697 -88.99924 
L 149.734737 -88.99924 
L 149.734737 -77.737682 
L 150.975532 -77.737682 
L 150.975532 -77.737682 
L 151.109672 -77.737682 
L 151.109672 -77.737682 
L 152.384002 -77.737682 
L 152.384002 -77.737682 
L 154.597312 -77.737682 
L 154.597312 -77.737682 
L 159.426351 -77.737682 
L 159.426351 -77.737682 
L 173.04156 -77.737682 
L 173.04156 -77.737682 
L 179.94977 -77.737682 
L 179.94977 -77.737682 
L 186.790909 -77.737682 
L 186.790909 -77.737682 
L 186.790909 -127.014607 
L 186.790909 -127.014607 
L 186.790909 -127.014607 
L 179.94977 -127.014607 
L 179.94977 -127.014607 
L 173.04156 -127.014607 
L 173.04156 -127.014607 
L 159.426351 -127.014607 
L 159.426351 -127.014607 
L 154.597312 -127.014607 
L 154.597312 -127.014607 
L 152.384002 -127.014607 
L 152.384002 -127.014607 
L 151.109672 -127.014607 
L 151.109672 -127.014607 
L 150.975532 -127.014607 
L 150.975532 -127.014607 
L 149.734737 -127.014607 
L 149.734737 -132.414447 
L 144.905697 -132.414447 
L 144.905697 -132.414447 
L 142.558248 -132.414447 
L 142.558248 -132.414447 
L 142.491178 -132.414447 
L 142.491178 -132.414447 
L 141.921083 -132.414447 
L 141.921083 -132.414447 
L 140.680288 -132.414447 
L 140.680288 -136.708813 
L 140.344938 -136.708813 
L 140.344938 -140.602844 
L 139.707773 -140.602844 
L 139.707773 -140.602844 
L 137.561533 -140.602844 
L 137.561533 -140.602844 
L 130.049693 -140.602844 
L 130.049693 -140.602844 
L 125.153584 -140.602844 
L 125.153584 -143.902823 
L 125.052979 -143.902823 
L 125.052979 -143.902823 
L 124.281674 -143.902823 
L 124.281674 -143.902823 
L 122.504319 -143.902823 
L 122.504319 -143.902823 
L 117.977094 -143.902823 
L 117.977094 -143.902823 
L 112.77917 -143.902823 
L 112.77917 -143.902823 
L 103.557046 -143.902823 
L 103.557046 -143.902823 
L 99.432241 -143.902823 
L 99.432241 -143.902823 
L 98.694471 -143.902823 
L 98.694471 -146.585071 
L 98.224981 -146.585071 
L 98.224981 -146.585071 
L 93.429476 -146.585071 
L 93.429476 -146.585071 
L 93.060591 -146.585071 
L 93.060591 -146.585071 
L 83.000092 -146.585071 
L 83.000092 -149.015517 
L 81.759297 -149.015517 
L 81.759297 -149.015517 
L 80.015477 -149.015517 
L 80.015477 -149.015517 
L 79.646592 -149.015517 
L 79.646592 -149.015517 
L 79.579522 -149.015517 
L 79.579522 -149.015517 
L 79.110032 -149.015517 
L 79.110032 -149.015517 
L 75.253508 -149.015517 
L 75.253508 -149.015517 
L 75.119368 -149.015517 
L 75.119368 -149.015517 
L 74.985228 -149.015517 
L 74.985228 -149.015517 
L 74.348063 -149.015517 
L 74.348063 -149.015517 
L 72.939593 -149.015517 
L 72.939593 -149.015517 
L 69.485488 -149.015517 
L 69.485488 -149.015517 
L 68.110553 -149.015517 
L 68.110553 -150.971891 
L 66.802688 -150.971891 
L 66.802688 -150.971891 
L 65.830173 -150.971891 
L 65.830173 -150.971891 
L 64.254029 -150.971891 
L 64.254029 -150.971891 
L 64.119889 -150.971891 
L 64.119889 -150.971891 
L 62.845559 -150.971891 
L 62.845559 -150.971891 
L 62.409604 -150.971891 
L 62.409604 -150.971891 
L 62.174859 -150.971891 
L 62.174859 -150.971891 
L 61.604764 -150.971891 
L 61.604764 -152.704153 
L 61.403554 -152.704153 
L 61.403554 -152.704153 
L 61.269414 -152.704153 
L 61.269414 -152.704153 
L 60.363969 -152.704153 
L 60.363969 -152.704153 
L 60.062154 -152.704153 
L 60.062154 -154.345786 
L 59.894479 -154.345786 
L 59.894479 -155.968987 
L 59.626199 -155.968987 
L 59.626199 -155.968987 
L 59.458524 -155.968987 
L 59.458524 -155.968987 
L 59.290849 -155.968987 
L 59.290849 -155.968987 
L 59.056104 -155.968987 
L 59.056104 -157.512687 
L 57.915914 -157.512687 
L 57.915914 -157.512687 
L 57.580564 -157.512687 
L 57.580564 -159.020567 
L 57.379354 -159.020567 
L 57.379354 -159.020567 
L 55.669069 -159.020567 
L 55.669069 -159.020567 
L 54.998369 -159.020567 
L 54.998369 -159.020567 
L 53.656969 -159.020567 
L 53.656969 -159.020567 
L 52.282035 -159.020567 
L 52.282035 -160.443385 
L 51.84608 -160.443385 
L 51.84608 -160.443385 
L 50.30347 -160.443385 
L 50.30347 -160.443385 
L 50.10226 -160.443385 
L 50.10226 -160.443385 
L 49.63277 -160.443385 
L 49.63277 -160.443385 
L 49.29742 -160.443385 
L 49.29742 -160.443385 
L 49.16328 -160.443385 
L 49.16328 -161.776274 
L 48.995605 -161.776274 
L 48.995605 -163.096446 
L 47.452995 -163.096446 
L 47.452995 -164.403142 
L 47.117645 -164.403142 
L 47.117645 -165.69549 
L 46.648155 -165.69549 
L 46.648155 -165.69549 
L 46.514015 -165.69549 
L 46.514015 -165.69549 
L 45.977455 -165.69549 
L 45.977455 -166.947746 
L 45.40736 -166.947746 
L 45.40736 -168.184757 
L 44.367775 -168.184757 
L 44.367775 -168.184757 
L 42.489815 -168.184757 
L 42.489815 -169.394055 
L 42.221535 -169.394055 
L 42.221535 -169.394055 
L 41.45023 -169.394055 
L 41.45023 -170.575453 
L 40.880135 -170.575453 
L 40.880135 -170.575453 
L 40.544785 -170.575453 
L 40.544785 -171.728581 
L 40.37711 -171.728581 
L 40.37711 -172.862427 
L 40.075295 -172.862427 
L 40.075295 -175.063422 
L 39.706411 -175.063422 
L 39.706411 -175.063422 
L 39.404596 -175.063422 
L 39.404596 -175.063422 
L 39.236921 -175.063422 
L 39.236921 -176.100409 
L 38.767431 -176.100409 
L 38.767431 -177.10887 
L 38.666826 -177.10887 
L 38.666826 -177.10887 
L 38.331476 -177.10887 
L 38.331476 -178.07711 
L 37.761381 -178.07711 
L 37.761381 -178.07711 
L 37.694311 -178.07711 
L 37.694311 -178.07711 
L 37.358961 -178.07711 
L 37.358961 -178.994231 
L 37.090681 -178.994231 
L 37.090681 -178.994231 
L 36.822401 -178.994231 
L 36.822401 -178.994231 
L 36.520586 -178.994231 
L 36.520586 -178.994231 
L 36.218771 -178.994231 
L 36.218771 -179.849997 
L 36.185236 -179.849997 
L 36.185236 -179.849997 
L 36.151701 -179.849997 
L 36.151701 -179.849997 
L 36.051096 -179.849997 
L 36.051096 -180.643626 
L 35.816351 -180.643626 
L 35.816351 -181.370818 
L 35.045046 -181.370818 
L 35.045046 -181.370818 
L 34.910906 -181.370818 
L 34.910906 -182.000696 
L 34.843836 -182.000696 
L 34.843836 -182.000696 
L 34.810301 -182.000696 
L 34.810301 -182.480094 
L 34.709696 -182.480094 
L 34.709696 -182.667273 
L 34.609091 -182.667273 
z
" id="m1d0a5d8344" style="stroke:#1f77b4;stroke-opacity:0.25;"/>
    </defs>
    <g clip-path="url(#p1a23eae9b2)">
     <use style="fill:#1f77b4;fill-opacity:0.25;stroke:#1f77b4;stroke-opacity:0.25;" x="0" xlink:href="#m1d0a5d8344" y="216"/>
    </g>
   </g>
   <g id="PolyCollection_2">
    <defs>
     <path d="M 34.609091 -182.667273 
L 34.609091 -182.667273 
L 34.642626 -182.667273 
L 34.642626 -175.567534 
L 34.676161 -175.567534 
L 34.676161 -174.42621 
L 34.709696 -174.42621 
L 34.709696 -173.861153 
L 34.743231 -173.861153 
L 34.743231 -172.193555 
L 34.810301 -172.193555 
L 34.810301 -170.559647 
L 34.843836 -170.559647 
L 34.843836 -169.485494 
L 34.877371 -169.485494 
L 34.877371 -168.421605 
L 34.910906 -168.421605 
L 34.910906 -167.893122 
L 34.977976 -167.893122 
L 34.977976 -165.280516 
L 35.011511 -165.280516 
L 35.011511 -164.247614 
L 35.045046 -164.247614 
L 35.045046 -163.220734 
L 35.078581 -163.220734 
L 35.078581 -162.709398 
L 35.112116 -162.709398 
L 35.112116 -162.199392 
L 35.179186 -162.199392 
L 35.179186 -160.676862 
L 35.212721 -160.676862 
L 35.212721 -160.171702 
L 35.246256 -160.171702 
L 35.246256 -159.164674 
L 35.279791 -159.164674 
L 35.279791 -158.662735 
L 35.313326 -158.662735 
L 35.313326 -157.66185 
L 35.346861 -157.66185 
L 35.346861 -156.664763 
L 35.380396 -156.664763 
L 35.380396 -155.671264 
L 35.447466 -155.671264 
L 35.447466 -155.175801 
L 35.514536 -155.175801 
L 35.514536 -154.18734 
L 35.548071 -154.18734 
L 35.548071 -153.694302 
L 35.581606 -153.694302 
L 35.581606 -152.219736 
L 35.615141 -152.219736 
L 35.615141 -151.729673 
L 35.715746 -151.729673 
L 35.715746 -151.238236 
L 35.749281 -151.238236 
L 35.749281 -149.768076 
L 35.782816 -149.768076 
L 35.782816 -149.27936 
L 35.849886 -149.27936 
L 35.849886 -149.27936 
L 35.883421 -149.27936 
L 35.883421 -147.810757 
L 35.916956 -147.810757 
L 35.916956 -147.322484 
L 36.051096 -147.322484 
L 36.051096 -146.834823 
L 36.084631 -146.834823 
L 36.084631 -146.347762 
L 36.118166 -146.347762 
L 36.118166 -146.347762 
L 36.285841 -146.347762 
L 36.285841 -145.859145 
L 36.352911 -145.859145 
L 36.352911 -145.859145 
L 36.453516 -145.859145 
L 36.453516 -145.368951 
L 36.487051 -145.368951 
L 36.487051 -144.87935 
L 36.554121 -144.87935 
L 36.554121 -144.87935 
L 36.688261 -144.87935 
L 36.688261 -144.388137 
L 36.721796 -144.388137 
L 36.721796 -143.897508 
L 36.788866 -143.897508 
L 36.788866 -143.407453 
L 36.822401 -143.407453 
L 36.822401 -142.917963 
L 36.889471 -142.917963 
L 36.889471 -141.940645 
L 36.923006 -141.940645 
L 36.923006 -141.4528 
L 37.124216 -141.4528 
L 37.124216 -140.965487 
L 37.157751 -140.965487 
L 37.157751 -140.478698 
L 37.258356 -140.478698 
L 37.258356 -140.478698 
L 37.291891 -140.478698 
L 37.291891 -139.990168 
L 37.325426 -139.990168 
L 37.325426 -139.502159 
L 37.358961 -139.502159 
L 37.358961 -139.014662 
L 37.392496 -139.014662 
L 37.392496 -138.04118 
L 37.426031 -138.04118 
L 37.426031 -137.555181 
L 37.459566 -137.555181 
L 37.459566 -137.069669 
L 37.660776 -137.069669 
L 37.660776 -136.584637 
L 37.694311 -136.584637 
L 37.694311 -136.100079 
L 37.861986 -136.100079 
L 37.861986 -135.127716 
L 37.895521 -135.127716 
L 37.895521 -134.157224 
L 38.029661 -134.157224 
L 38.029661 -133.672666 
L 38.096731 -133.672666 
L 38.096731 -132.704902 
L 38.465616 -132.704902 
L 38.465616 -132.221686 
L 38.599756 -132.221686 
L 38.599756 -132.221686 
L 38.733896 -132.221686 
L 38.733896 -131.736502 
L 38.868036 -131.736502 
L 38.868036 -131.251761 
L 39.002176 -131.251761 
L 39.002176 -131.251761 
L 39.102781 -131.251761 
L 39.102781 -131.251761 
L 39.337526 -131.251761 
L 39.337526 -130.762542 
L 39.404596 -130.762542 
L 39.404596 -130.273776 
L 39.807016 -130.273776 
L 39.807016 -129.785458 
L 39.840551 -129.785458 
L 39.840551 -128.810149 
L 39.874086 -128.810149 
L 39.874086 -128.32315 
L 39.90762 -128.32315 
L 39.90762 -127.836582 
L 40.10883 -127.836582 
L 40.10883 -127.350443 
L 40.343575 -127.350443 
L 40.343575 -126.864727 
L 40.477715 -126.864727 
L 40.477715 -126.379432 
L 40.544785 -126.379432 
L 40.544785 -126.379432 
L 40.57832 -126.379432 
L 40.57832 -126.379432 
L 40.678925 -126.379432 
L 40.678925 -126.379432 
L 40.91367 -126.379432 
L 40.91367 -125.886735 
L 40.947205 -125.886735 
L 40.947205 -125.394478 
L 40.98074 -125.394478 
L 40.98074 -124.90266 
L 41.215485 -124.90266 
L 41.215485 -124.411275 
L 41.416695 -124.411275 
L 41.416695 -123.917621 
L 41.45023 -123.917621 
L 41.45023 -123.424403 
L 41.5173 -123.424403 
L 41.5173 -122.931618 
L 41.550835 -122.931618 
L 41.550835 -122.439263 
L 41.684975 -122.439263 
L 41.684975 -121.947335 
L 41.752045 -121.947335 
L 41.752045 -121.947335 
L 42.25507 -121.947335 
L 42.25507 -121.947335 
L 42.32214 -121.947335 
L 42.32214 -120.953576 
L 42.59042 -120.953576 
L 42.59042 -120.457353 
L 42.72456 -120.457353 
L 42.72456 -120.457353 
L 42.8587 -120.457353 
L 42.8587 -119.958685 
L 42.959305 -119.958685 
L 42.959305 -119.460458 
L 43.12698 -119.460458 
L 43.12698 -119.460458 
L 43.361725 -119.460458 
L 43.361725 -118.959734 
L 43.59647 -118.959734 
L 43.59647 -118.459454 
L 43.898285 -118.459454 
L 43.898285 -117.959616 
L 43.99889 -117.959616 
L 43.99889 -117.460217 
L 44.13303 -117.460217 
L 44.13303 -116.961254 
L 44.233635 -116.961254 
L 44.233635 -116.462724 
L 44.501915 -116.462724 
L 44.501915 -115.964625 
L 44.80373 -115.964625 
L 44.80373 -115.466954 
L 44.837265 -115.466954 
L 44.837265 -114.969709 
L 44.971405 -114.969709 
L 44.971405 -114.969709 
L 45.00494 -114.969709 
L 45.00494 -114.469802 
L 45.13908 -114.469802 
L 45.13908 -113.970326 
L 45.47443 -113.970326 
L 45.47443 -113.471279 
L 45.5415 -113.471279 
L 45.5415 -113.471279 
L 45.843315 -113.471279 
L 45.843315 -112.969494 
L 45.87685 -112.969494 
L 45.87685 -112.464922 
L 46.044525 -112.464922 
L 46.044525 -111.960796 
L 46.14513 -111.960796 
L 46.14513 -111.453818 
L 46.245735 -111.453818 
L 46.245735 -110.947292 
L 46.514015 -110.947292 
L 46.514015 -110.441215 
L 46.61462 -110.441215 
L 46.61462 -109.935586 
L 46.983505 -109.935586 
L 46.983505 -109.935586 
L 47.050575 -109.935586 
L 47.050575 -109.427 
L 47.08411 -109.427 
L 47.08411 -108.91887 
L 47.15118 -108.91887 
L 47.15118 -108.411192 
L 47.184715 -108.411192 
L 47.184715 -108.411192 
L 47.28532 -108.411192 
L 47.28532 -107.900467 
L 47.587135 -107.900467 
L 47.587135 -107.390203 
L 47.721275 -107.390203 
L 47.721275 -106.880399 
L 47.788345 -106.880399 
L 47.788345 -106.371052 
L 47.989555 -106.371052 
L 47.989555 -106.371052 
L 48.09016 -106.371052 
L 48.09016 -106.371052 
L 48.391975 -106.371052 
L 48.391975 -105.854869 
L 48.49258 -105.854869 
L 48.49258 -105.339166 
L 48.526115 -105.339166 
L 48.526115 -104.823941 
L 48.794395 -104.823941 
L 48.794395 -104.823941 
L 48.82793 -104.823941 
L 48.82793 -104.823941 
L 48.861465 -104.823941 
L 48.861465 -104.823941 
L 49.02914 -104.823941 
L 49.02914 -104.297672 
L 49.062675 -104.297672 
L 49.062675 -103.771921 
L 49.09621 -103.771921 
L 49.09621 -103.246684 
L 49.16328 -103.246684 
L 49.16328 -102.721961 
L 49.398025 -102.721961 
L 49.398025 -102.197749 
L 49.69984 -102.197749 
L 49.69984 -101.674047 
L 49.733375 -101.674047 
L 49.733375 -101.150854 
L 49.76691 -101.150854 
L 49.76691 -100.628167 
L 49.83398 -100.628167 
L 49.83398 -100.628167 
L 50.10226 -100.628167 
L 50.10226 -100.628167 
L 50.77296 -100.628167 
L 50.77296 -100.628167 
L 51.10831 -100.628167 
L 51.10831 -100.093369 
L 51.141845 -100.093369 
L 51.141845 -100.093369 
L 51.208915 -100.093369 
L 51.208915 -100.093369 
L 51.477195 -100.093369 
L 51.477195 -99.550318 
L 51.51073 -99.550318 
L 51.51073 -99.007853 
L 51.84608 -99.007853 
L 51.84608 -98.465973 
L 52.013755 -98.465973 
L 52.013755 -98.465973 
L 52.147895 -98.465973 
L 52.147895 -97.920079 
L 52.349105 -97.920079 
L 52.349105 -97.370082 
L 52.885664 -97.370082 
L 52.885664 -96.820703 
L 53.153944 -96.820703 
L 53.153944 -96.820703 
L 53.623434 -96.820703 
L 53.623434 -96.267093 
L 53.656969 -96.267093 
L 53.656969 -95.714118 
L 53.690504 -95.714118 
L 53.690504 -95.161776 
L 53.824644 -95.161776 
L 53.824644 -94.610067 
L 53.858179 -94.610067 
L 53.858179 -94.058988 
L 54.059389 -94.058988 
L 54.059389 -93.508538 
L 54.461809 -93.508538 
L 54.461809 -92.958716 
L 55.400789 -92.958716 
L 55.400789 -92.409522 
L 55.601999 -92.409522 
L 55.601999 -91.860955 
L 55.702604 -91.860955 
L 55.702604 -91.860955 
L 56.037954 -91.860955 
L 56.037954 -91.860955 
L 56.071489 -91.860955 
L 56.071489 -91.302413 
L 56.272699 -91.302413 
L 56.272699 -90.744543 
L 56.306234 -90.744543 
L 56.306234 -90.187345 
L 56.608049 -90.187345 
L 56.608049 -89.630817 
L 57.245214 -89.630817 
L 57.245214 -89.07496 
L 57.379354 -89.07496 
L 57.379354 -88.519773 
L 58.787824 -88.519773 
L 58.787824 -87.965257 
L 59.458524 -87.965257 
L 59.458524 -87.965257 
L 59.659734 -87.965257 
L 59.659734 -87.965257 
L 59.961549 -87.965257 
L 59.961549 -87.399785 
L 60.095689 -87.399785 
L 60.095689 -86.835037 
L 60.196294 -86.835037 
L 60.196294 -86.271014 
L 60.699319 -86.271014 
L 60.699319 -85.707716 
L 60.732854 -85.707716 
L 60.732854 -85.145144 
L 60.766389 -85.145144 
L 60.766389 -85.145144 
L 60.799924 -85.145144 
L 60.799924 -85.145144 
L 62.543744 -85.145144 
L 62.543744 -84.570661 
L 63.683934 -84.570661 
L 63.683934 -84.570661 
L 64.689984 -84.570661 
L 64.689984 -84.570661 
L 64.790589 -84.570661 
L 64.790589 -83.983641 
L 65.696033 -83.983641 
L 65.696033 -83.397482 
L 66.064918 -83.397482 
L 66.064918 -83.397482 
L 66.098453 -83.397482 
L 66.098453 -82.805164 
L 66.165523 -82.805164 
L 66.165523 -82.805164 
L 66.567943 -82.805164 
L 66.567943 -82.206493 
L 66.802688 -82.206493 
L 66.802688 -81.608763 
L 67.138038 -81.608763 
L 67.138038 -81.608763 
L 67.439853 -81.608763 
L 67.439853 -80.996642 
L 67.875808 -80.996642 
L 67.875808 -80.385555 
L 68.177623 -80.385555 
L 68.177623 -80.385555 
L 68.211158 -80.385555 
L 68.211158 -79.767383 
L 69.418418 -79.767383 
L 69.418418 -79.1503 
L 69.586093 -79.1503 
L 69.586093 -77.919401 
L 70.893958 -77.919401 
L 70.893958 -77.919401 
L 71.296378 -77.919401 
L 71.296378 -77.296902 
L 71.933543 -77.296902 
L 71.933543 -77.296902 
L 72.168288 -77.296902 
L 72.168288 -76.657234 
L 72.335963 -76.657234 
L 72.335963 -76.018849 
L 72.503638 -76.018849 
L 72.503638 -75.381748 
L 72.838988 -75.381748 
L 72.838988 -75.381748 
L 74.582808 -75.381748 
L 74.582808 -74.736041 
L 74.851088 -74.736041 
L 74.851088 -74.091698 
L 75.421183 -74.091698 
L 75.421183 -74.091698 
L 75.622393 -74.091698 
L 75.622393 -74.091698 
L 76.494303 -74.091698 
L 76.494303 -73.427491 
L 76.661978 -73.427491 
L 76.661978 -72.764825 
L 79.948407 -72.764825 
L 79.948407 -72.103705 
L 79.981942 -72.103705 
L 79.981942 -72.103705 
L 80.451432 -72.103705 
L 80.451432 -71.432565 
L 83.000092 -71.432565 
L 83.000092 -71.432565 
L 83.939072 -71.432565 
L 83.939072 -71.432565 
L 85.984707 -71.432565 
L 85.984707 -70.738376 
L 86.252987 -70.738376 
L 86.252987 -70.738376 
L 86.655407 -70.738376 
L 86.655407 -70.032862 
L 86.823082 -70.032862 
L 86.823082 -69.329373 
L 88.365692 -69.329373 
L 88.365692 -68.627915 
L 89.338207 -68.627915 
L 89.338207 -68.627915 
L 89.774162 -68.627915 
L 89.774162 -67.914176 
L 90.713142 -67.914176 
L 90.713142 -67.202636 
L 91.182632 -67.202636 
L 91.182632 -66.493307 
L 91.283237 -66.493307 
L 91.283237 -66.493307 
L 91.618586 -66.493307 
L 91.618586 -66.493307 
L 92.423426 -66.493307 
L 92.423426 -66.493307 
L 93.764826 -66.493307 
L 93.764826 -65.737239 
L 93.798361 -65.737239 
L 93.798361 -64.983993 
L 93.831896 -64.983993 
L 93.831896 -64.983993 
L 93.898966 -64.983993 
L 93.898966 -64.983993 
L 93.932501 -64.983993 
L 93.932501 -64.983993 
L 94.871481 -64.983993 
L 94.871481 -64.983993 
L 94.938551 -64.983993 
L 94.938551 -64.154155 
L 95.609251 -64.154155 
L 95.609251 -64.154155 
L 96.212881 -64.154155 
L 96.212881 -63.305451 
L 98.057306 -63.305451 
L 98.057306 -63.305451 
L 98.426191 -63.305451 
L 98.426191 -62.436552 
L 98.929216 -62.436552 
L 98.929216 -62.436552 
L 99.096891 -62.436552 
L 99.096891 -61.545963 
L 99.666986 -61.545963 
L 99.666986 -61.545963 
L 100.035871 -61.545963 
L 100.035871 -61.545963 
L 100.471826 -61.545963 
L 100.471826 -60.60134 
L 102.416856 -60.60134 
L 102.416856 -60.60134 
L 102.550996 -60.60134 
L 102.550996 -60.60134 
L 102.752206 -60.60134 
L 102.752206 -60.60134 
L 103.288766 -60.60134 
L 103.288766 -59.555782 
L 103.624116 -59.555782 
L 103.624116 -59.555782 
L 104.46249 -59.555782 
L 104.46249 -58.477499 
L 104.764305 -58.477499 
L 104.764305 -57.410116 
L 105.13319 -57.410116 
L 105.13319 -56.353598 
L 105.300865 -56.353598 
L 105.300865 -56.353598 
L 107.245895 -56.353598 
L 107.245895 -56.353598 
L 107.54771 -56.353598 
L 107.54771 -56.353598 
L 109.22446 -56.353598 
L 109.22446 -55.144478 
L 117.138719 -55.144478 
L 117.138719 -53.952683 
L 117.239324 -53.952683 
L 117.239324 -53.952683 
L 119.419099 -53.952683 
L 119.419099 -52.708092 
L 119.787984 -52.708092 
L 119.787984 -52.708092 
L 122.906739 -52.708092 
L 122.906739 -51.403031 
L 127.769314 -51.403031 
L 127.769314 -51.403031 
L 129.412529 -51.403031 
L 129.412529 -50.027779 
L 133.436728 -50.027779 
L 133.436728 -48.684363 
L 134.845198 -48.684363 
L 134.845198 -48.684363 
L 137.997488 -48.684363 
L 137.997488 -48.684363 
L 138.031023 -48.684363 
L 138.031023 -47.110642 
L 139.573633 -47.110642 
L 139.573633 -47.110642 
L 143.396622 -47.110642 
L 143.396622 -47.110642 
L 144.570347 -47.110642 
L 144.570347 -47.110642 
L 149.097572 -47.110642 
L 149.097572 -44.909078 
L 149.265247 -44.909078 
L 149.265247 -44.909078 
L 150.573112 -44.909078 
L 150.573112 -44.909078 
L 154.094287 -44.909078 
L 154.094287 -44.909078 
L 155.368617 -44.909078 
L 155.368617 -41.190296 
L 165.496186 -41.190296 
L 165.496186 -38.28055 
L 171.09653 -38.28055 
L 171.09653 -38.28055 
L 176.763945 -38.28055 
L 176.763945 -35.062421 
L 186.086674 -35.062421 
L 186.086674 -34.412727 
L 186.086674 -34.412727 
L 186.086674 -34.412727 
L 186.086674 -53.627878 
L 176.763945 -53.627878 
L 176.763945 -56.404844 
L 171.09653 -56.404844 
L 171.09653 -56.404844 
L 165.496186 -56.404844 
L 165.496186 -59.163029 
L 155.368617 -59.163029 
L 155.368617 -61.266902 
L 154.094287 -61.266902 
L 154.094287 -61.266902 
L 150.573112 -61.266902 
L 150.573112 -61.266902 
L 149.265247 -61.266902 
L 149.265247 -61.266902 
L 149.097572 -61.266902 
L 149.097572 -63.09505 
L 144.570347 -63.09505 
L 144.570347 -63.09505 
L 143.396622 -63.09505 
L 143.396622 -63.09505 
L 139.573633 -63.09505 
L 139.573633 -63.09505 
L 138.031023 -63.09505 
L 138.031023 -64.646627 
L 137.997488 -64.646627 
L 137.997488 -64.646627 
L 134.845198 -64.646627 
L 134.845198 -64.646627 
L 133.436728 -64.646627 
L 133.436728 -66.04561 
L 129.412529 -66.04561 
L 129.412529 -67.418246 
L 127.769314 -67.418246 
L 127.769314 -67.418246 
L 122.906739 -67.418246 
L 122.906739 -68.72064 
L 119.787984 -68.72064 
L 119.787984 -68.72064 
L 119.419099 -68.72064 
L 119.419099 -69.962454 
L 117.239324 -69.962454 
L 117.239324 -69.962454 
L 117.138719 -69.962454 
L 117.138719 -71.151336 
L 109.22446 -71.151336 
L 109.22446 -72.325798 
L 107.54771 -72.325798 
L 107.54771 -72.325798 
L 107.245895 -72.325798 
L 107.245895 -72.325798 
L 105.300865 -72.325798 
L 105.300865 -72.325798 
L 105.13319 -72.325798 
L 105.13319 -73.397537 
L 104.764305 -73.397537 
L 104.764305 -74.460198 
L 104.46249 -74.460198 
L 104.46249 -75.513759 
L 103.624116 -75.513759 
L 103.624116 -75.513759 
L 103.288766 -75.513759 
L 103.288766 -76.534408 
L 102.752206 -76.534408 
L 102.752206 -76.534408 
L 102.550996 -76.534408 
L 102.550996 -76.534408 
L 102.416856 -76.534408 
L 102.416856 -76.534408 
L 100.471826 -76.534408 
L 100.471826 -77.483354 
L 100.035871 -77.483354 
L 100.035871 -77.483354 
L 99.666986 -77.483354 
L 99.666986 -77.483354 
L 99.096891 -77.483354 
L 99.096891 -78.389202 
L 98.929216 -78.389202 
L 98.929216 -78.389202 
L 98.426191 -78.389202 
L 98.426191 -79.273278 
L 98.057306 -79.273278 
L 98.057306 -79.273278 
L 96.212881 -79.273278 
L 96.212881 -80.137083 
L 95.609251 -80.137083 
L 95.609251 -80.137083 
L 94.938551 -80.137083 
L 94.938551 -80.981951 
L 94.871481 -80.981951 
L 94.871481 -80.981951 
L 93.932501 -80.981951 
L 93.932501 -80.981951 
L 93.898966 -80.981951 
L 93.898966 -80.981951 
L 93.831896 -80.981951 
L 93.831896 -80.981951 
L 93.798361 -80.981951 
L 93.798361 -81.768612 
L 93.764826 -81.768612 
L 93.764826 -82.55286 
L 92.423426 -82.55286 
L 92.423426 -82.55286 
L 91.618586 -82.55286 
L 91.618586 -82.55286 
L 91.283237 -82.55286 
L 91.283237 -82.55286 
L 91.182632 -82.55286 
L 91.182632 -83.299358 
L 90.713142 -83.299358 
L 90.713142 -84.043951 
L 89.774162 -84.043951 
L 89.774162 -84.786651 
L 89.338207 -84.786651 
L 89.338207 -84.786651 
L 88.365692 -84.786651 
L 88.365692 -85.516989 
L 86.823082 -85.516989 
L 86.823082 -86.245579 
L 86.655407 -86.245579 
L 86.655407 -86.972428 
L 86.252987 -86.972428 
L 86.252987 -86.972428 
L 85.984707 -86.972428 
L 85.984707 -87.687899 
L 83.939072 -87.687899 
L 83.939072 -87.687899 
L 83.000092 -87.687899 
L 83.000092 -87.687899 
L 80.451432 -87.687899 
L 80.451432 -88.383496 
L 79.981942 -88.383496 
L 79.981942 -88.383496 
L 79.948407 -88.383496 
L 79.948407 -89.069015 
L 76.661978 -89.069015 
L 76.661978 -89.753194 
L 76.494303 -89.753194 
L 76.494303 -90.436039 
L 75.622393 -90.436039 
L 75.622393 -90.436039 
L 75.421183 -90.436039 
L 75.421183 -90.436039 
L 74.851088 -90.436039 
L 74.851088 -91.101641 
L 74.582808 -91.101641 
L 74.582808 -91.766055 
L 72.838988 -91.766055 
L 72.838988 -91.766055 
L 72.503638 -91.766055 
L 72.503638 -92.421824 
L 72.335963 -92.421824 
L 72.335963 -93.076474 
L 72.168288 -93.076474 
L 72.168288 -93.73001 
L 71.933543 -93.73001 
L 71.933543 -93.73001 
L 71.296378 -93.73001 
L 71.296378 -94.36859 
L 70.893958 -94.36859 
L 70.893958 -94.36859 
L 69.586093 -94.36859 
L 69.586093 -95.629544 
L 69.418418 -95.629544 
L 69.418418 -96.258591 
L 68.211158 -96.258591 
L 68.211158 -96.886688 
L 68.177623 -96.886688 
L 68.177623 -96.886688 
L 67.875808 -96.886688 
L 67.875808 -97.507681 
L 67.439853 -97.507681 
L 67.439853 -98.127769 
L 67.138038 -98.127769 
L 67.138038 -98.127769 
L 66.802688 -98.127769 
L 66.802688 -98.735282 
L 66.567943 -98.735282 
L 66.567943 -99.341968 
L 66.165523 -99.341968 
L 66.165523 -99.341968 
L 66.098453 -99.341968 
L 66.098453 -99.942284 
L 66.064918 -99.942284 
L 66.064918 -99.942284 
L 65.696033 -99.942284 
L 65.696033 -100.536428 
L 64.790589 -100.536428 
L 64.790589 -101.129812 
L 64.689984 -101.129812 
L 64.689984 -101.129812 
L 63.683934 -101.129812 
L 63.683934 -101.129812 
L 62.543744 -101.129812 
L 62.543744 -101.712187 
L 60.799924 -101.712187 
L 60.799924 -101.712187 
L 60.766389 -101.712187 
L 60.766389 -101.712187 
L 60.732854 -101.712187 
L 60.732854 -102.284055 
L 60.699319 -102.284055 
L 60.699319 -102.855275 
L 60.196294 -102.855275 
L 60.196294 -103.425847 
L 60.095689 -103.425847 
L 60.095689 -103.995771 
L 59.961549 -103.995771 
L 59.961549 -104.56505 
L 59.659734 -104.56505 
L 59.659734 -104.56505 
L 59.458524 -104.56505 
L 59.458524 -104.56505 
L 58.787824 -104.56505 
L 58.787824 -105.124674 
L 57.379354 -105.124674 
L 57.379354 -105.683698 
L 57.245214 -105.683698 
L 57.245214 -106.24212 
L 56.608049 -106.24212 
L 56.608049 -106.799942 
L 56.306234 -106.799942 
L 56.306234 -107.357164 
L 56.272699 -107.357164 
L 56.272699 -107.913787 
L 56.071489 -107.913787 
L 56.071489 -108.46981 
L 56.037954 -108.46981 
L 56.037954 -108.46981 
L 55.702604 -108.46981 
L 55.702604 -108.46981 
L 55.601999 -108.46981 
L 55.601999 -109.017074 
L 55.400789 -109.017074 
L 55.400789 -109.563775 
L 54.461809 -109.563775 
L 54.461809 -110.109914 
L 54.059389 -110.109914 
L 54.059389 -110.655491 
L 53.858179 -110.655491 
L 53.858179 -111.200504 
L 53.824644 -111.200504 
L 53.824644 -111.744955 
L 53.690504 -111.744955 
L 53.690504 -112.288841 
L 53.656969 -112.288841 
L 53.656969 -112.832164 
L 53.623434 -112.832164 
L 53.623434 -113.374922 
L 53.153944 -113.374922 
L 53.153944 -113.374922 
L 52.885664 -113.374922 
L 52.885664 -113.913435 
L 52.349105 -113.913435 
L 52.349105 -114.451398 
L 52.147895 -114.451398 
L 52.147895 -114.985243 
L 52.013755 -114.985243 
L 52.013755 -114.985243 
L 51.84608 -114.985243 
L 51.84608 -115.51506 
L 51.51073 -115.51506 
L 51.51073 -116.044354 
L 51.477195 -116.044354 
L 51.477195 -116.573125 
L 51.208915 -116.573125 
L 51.208915 -116.573125 
L 51.141845 -116.573125 
L 51.141845 -116.573125 
L 51.10831 -116.573125 
L 51.10831 -117.094691 
L 50.77296 -117.094691 
L 50.77296 -117.094691 
L 50.10226 -117.094691 
L 50.10226 -117.094691 
L 49.83398 -117.094691 
L 49.83398 -117.094691 
L 49.76691 -117.094691 
L 49.76691 -117.606121 
L 49.733375 -117.606121 
L 49.733375 -118.11709 
L 49.69984 -118.11709 
L 49.69984 -118.627596 
L 49.398025 -118.627596 
L 49.398025 -119.137639 
L 49.16328 -119.137639 
L 49.16328 -119.647218 
L 49.09621 -119.647218 
L 49.09621 -120.15633 
L 49.062675 -120.15633 
L 49.062675 -120.664976 
L 49.02914 -120.664976 
L 49.02914 -121.173154 
L 48.861465 -121.173154 
L 48.861465 -121.173154 
L 48.82793 -121.173154 
L 48.82793 -121.173154 
L 48.794395 -121.173154 
L 48.794395 -121.173154 
L 48.526115 -121.173154 
L 48.526115 -121.672124 
L 48.49258 -121.672124 
L 48.49258 -122.170655 
L 48.391975 -122.170655 
L 48.391975 -122.668748 
L 48.09016 -122.668748 
L 48.09016 -122.668748 
L 47.989555 -122.668748 
L 47.989555 -122.668748 
L 47.788345 -122.668748 
L 47.788345 -123.16086 
L 47.721275 -123.16086 
L 47.721275 -123.65255 
L 47.587135 -123.65255 
L 47.587135 -124.143817 
L 47.28532 -124.143817 
L 47.28532 -124.634659 
L 47.184715 -124.634659 
L 47.184715 -124.634659 
L 47.15118 -124.634659 
L 47.15118 -125.122428 
L 47.08411 -125.122428 
L 47.08411 -125.609779 
L 47.050575 -125.609779 
L 47.050575 -126.096711 
L 46.983505 -126.096711 
L 46.983505 -126.096711 
L 46.61462 -126.096711 
L 46.61462 -126.580656 
L 46.514015 -126.580656 
L 46.514015 -127.064188 
L 46.245735 -127.064188 
L 46.245735 -127.547305 
L 46.14513 -127.547305 
L 46.14513 -128.030005 
L 46.044525 -128.030005 
L 46.044525 -128.509816 
L 45.87685 -128.509816 
L 45.87685 -128.989216 
L 45.843315 -128.989216 
L 45.843315 -129.46579 
L 45.5415 -129.46579 
L 45.5415 -129.46579 
L 45.47443 -129.46579 
L 45.47443 -129.939583 
L 45.13908 -129.939583 
L 45.13908 -130.412977 
L 45.00494 -130.412977 
L 45.00494 -130.885968 
L 44.971405 -130.885968 
L 44.971405 -130.885968 
L 44.837265 -130.885968 
L 44.837265 -131.35625 
L 44.80373 -131.35625 
L 44.80373 -131.826135 
L 44.501915 -131.826135 
L 44.501915 -132.295619 
L 44.233635 -132.295619 
L 44.233635 -132.764701 
L 44.13303 -132.764701 
L 44.13303 -133.233379 
L 43.99889 -133.233379 
L 43.99889 -133.701651 
L 43.898285 -133.701651 
L 43.898285 -134.169514 
L 43.59647 -134.169514 
L 43.59647 -134.636966 
L 43.361725 -134.636966 
L 43.361725 -135.104004 
L 43.12698 -135.104004 
L 43.12698 -135.104004 
L 42.959305 -135.104004 
L 42.959305 -135.568471 
L 42.8587 -135.568471 
L 42.8587 -136.032528 
L 42.72456 -136.032528 
L 42.72456 -136.032528 
L 42.59042 -136.032528 
L 42.59042 -136.494062 
L 42.32214 -136.494062 
L 42.32214 -137.415903 
L 42.25507 -137.415903 
L 42.25507 -137.415903 
L 41.752045 -137.415903 
L 41.752045 -137.415903 
L 41.684975 -137.415903 
L 41.684975 -137.872119 
L 41.550835 -137.872119 
L 41.550835 -138.327932 
L 41.5173 -138.327932 
L 41.5173 -138.78334 
L 41.45023 -138.78334 
L 41.45023 -139.238341 
L 41.416695 -139.238341 
L 41.416695 -139.69293 
L 41.215485 -139.69293 
L 41.215485 -140.14515 
L 40.98074 -140.14515 
L 40.98074 -140.59696 
L 40.947205 -140.59696 
L 40.947205 -141.048357 
L 40.91367 -141.048357 
L 40.91367 -141.499337 
L 40.678925 -141.499337 
L 40.678925 -141.499337 
L 40.57832 -141.499337 
L 40.57832 -141.499337 
L 40.544785 -141.499337 
L 40.544785 -141.499337 
L 40.477715 -141.499337 
L 40.477715 -141.944266 
L 40.343575 -141.944266 
L 40.343575 -142.388792 
L 40.10883 -142.388792 
L 40.10883 -142.832912 
L 39.90762 -142.832912 
L 39.90762 -143.276623 
L 39.874086 -143.276623 
L 39.874086 -143.719921 
L 39.840551 -143.719921 
L 39.840551 -144.605265 
L 39.807016 -144.605265 
L 39.807016 -145.047303 
L 39.404596 -145.047303 
L 39.404596 -145.488914 
L 39.337526 -145.488914 
L 39.337526 -145.930093 
L 39.102781 -145.930093 
L 39.102781 -145.930093 
L 39.002176 -145.930093 
L 39.002176 -145.930093 
L 38.868036 -145.930093 
L 38.868036 -146.367365 
L 38.733896 -146.367365 
L 38.733896 -146.804211 
L 38.599756 -146.804211 
L 38.599756 -146.804211 
L 38.465616 -146.804211 
L 38.465616 -147.238931 
L 38.096731 -147.238931 
L 38.096731 -148.10708 
L 38.029661 -148.10708 
L 38.029661 -148.5405 
L 37.895521 -148.5405 
L 37.895521 -149.40601 
L 37.861986 -149.40601 
L 37.861986 -150.269712 
L 37.694311 -150.269712 
L 37.694311 -150.699265 
L 37.660776 -150.699265 
L 37.660776 -151.128357 
L 37.459566 -151.128357 
L 37.459566 -151.556983 
L 37.426031 -151.556983 
L 37.426031 -151.985136 
L 37.392496 -151.985136 
L 37.392496 -152.840003 
L 37.358961 -152.840003 
L 37.358961 -153.266705 
L 37.325426 -153.266705 
L 37.325426 -153.692909 
L 37.291891 -153.692909 
L 37.291891 -154.118611 
L 37.258356 -154.118611 
L 37.258356 -154.118611 
L 37.157751 -154.118611 
L 37.157751 -154.542287 
L 37.124216 -154.542287 
L 37.124216 -154.965453 
L 36.923006 -154.965453 
L 36.923006 -155.388101 
L 36.889471 -155.388101 
L 36.889471 -156.231813 
L 36.822401 -156.231813 
L 36.822401 -156.652862 
L 36.788866 -156.652862 
L 36.788866 -157.073362 
L 36.721796 -157.073362 
L 36.721796 -157.493303 
L 36.688261 -157.493303 
L 36.688261 -157.912678 
L 36.554121 -157.912678 
L 36.554121 -157.912678 
L 36.487051 -157.912678 
L 36.487051 -158.330049 
L 36.453516 -158.330049 
L 36.453516 -158.746842 
L 36.352911 -158.746842 
L 36.352911 -158.746842 
L 36.285841 -158.746842 
L 36.285841 -159.161646 
L 36.118166 -159.161646 
L 36.118166 -159.161646 
L 36.084631 -159.161646 
L 36.084631 -159.574475 
L 36.051096 -159.574475 
L 36.051096 -159.986711 
L 35.916956 -159.986711 
L 35.916956 -160.398343 
L 35.883421 -160.398343 
L 35.883421 -161.629495 
L 35.849886 -161.629495 
L 35.849886 -161.629495 
L 35.782816 -161.629495 
L 35.782816 -162.037267 
L 35.749281 -162.037267 
L 35.749281 -163.256585 
L 35.715746 -163.256585 
L 35.715746 -163.661646 
L 35.615141 -163.661646 
L 35.615141 -164.064716 
L 35.581606 -164.064716 
L 35.581606 -165.269526 
L 35.548071 -165.269526 
L 35.548071 -165.669604 
L 35.514536 -165.669604 
L 35.514536 -166.467361 
L 35.447466 -166.467361 
L 35.447466 -166.864998 
L 35.380396 -166.864998 
L 35.380396 -167.657678 
L 35.346861 -167.657678 
L 35.346861 -168.446735 
L 35.313326 -168.446735 
L 35.313326 -169.231954 
L 35.279791 -169.231954 
L 35.279791 -169.623049 
L 35.246256 -169.623049 
L 35.246256 -170.402047 
L 35.212721 -170.402047 
L 35.212721 -170.789876 
L 35.179186 -170.789876 
L 35.179186 -171.946195 
L 35.112116 -171.946195 
L 35.112116 -172.329092 
L 35.078581 -172.329092 
L 35.078581 -172.710633 
L 35.045046 -172.710633 
L 35.045046 -173.469411 
L 35.011511 -173.469411 
L 35.011511 -174.222015 
L 34.977976 -174.222015 
L 34.977976 -176.072213 
L 34.910906 -176.072213 
L 34.910906 -176.436059 
L 34.877371 -176.436059 
L 34.877371 -177.156497 
L 34.843836 -177.156497 
L 34.843836 -177.86609 
L 34.810301 -177.86609 
L 34.810301 -178.906159 
L 34.743231 -178.906159 
L 34.743231 -179.9091 
L 34.709696 -179.9091 
L 34.709696 -180.232914 
L 34.676161 -180.232914 
L 34.676161 -180.858903 
L 34.642626 -180.858903 
L 34.642626 -182.667273 
L 34.609091 -182.667273 
z
" id="mc5feb109e0" style="stroke:#ff7f0e;stroke-opacity:0.25;"/>
    </defs>
    <g clip-path="url(#p1a23eae9b2)">
     <use style="fill:#ff7f0e;fill-opacity:0.25;stroke:#ff7f0e;stroke-opacity:0.25;" x="0" xlink:href="#mc5feb109e0" y="216"/>
    </g>
   </g>
   <g id="matplotlib.axis_1">
    <g id="xtick_1">
     <g id="line2d_1">
      <defs>
       <path d="M 0 0 
L 0 3.5 
" id="m525bfb30bc" style="stroke:#000000;stroke-width:0.8;"/>
      </defs>
      <g>
       <use style="stroke:#000000;stroke-width:0.8;" x="34.609091" xlink:href="#m525bfb30bc" y="189"/>
      </g>
     </g>
     <g id="text_1">
      <!-- 0 -->
      <defs>
       <path d="M 31.78125 66.40625 
Q 24.171875 66.40625 20.328125 58.90625 
Q 16.5 51.421875 16.5 36.375 
Q 16.5 21.390625 20.328125 13.890625 
Q 24.171875 6.390625 31.78125 6.390625 
Q 39.453125 6.390625 43.28125 13.890625 
Q 47.125 21.390625 47.125 36.375 
Q 47.125 51.421875 43.28125 58.90625 
Q 39.453125 66.40625 31.78125 66.40625 
z
M 31.78125 74.21875 
Q 44.046875 74.21875 50.515625 64.515625 
Q 56.984375 54.828125 56.984375 36.375 
Q 56.984375 17.96875 50.515625 8.265625 
Q 44.046875 -1.421875 31.78125 -1.421875 
Q 19.53125 -1.421875 13.0625 8.265625 
Q 6.59375 17.96875 6.59375 36.375 
Q 6.59375 54.828125 13.0625 64.515625 
Q 19.53125 74.21875 31.78125 74.21875 
z
" id="DejaVuSans-48"/>
      </defs>
      <g transform="translate(31.427841 203.598437)scale(0.1 -0.1)">
       <use xlink:href="#DejaVuSans-48"/>
      </g>
     </g>
    </g>
    <g id="xtick_2">
     <g id="line2d_2">
      <g>
       <use style="stroke:#000000;stroke-width:0.8;" x="85.615822" xlink:href="#m525bfb30bc" y="189"/>
      </g>
     </g>
     <g id="text_2">
      <!-- 50 -->
      <defs>
       <path d="M 10.796875 72.90625 
L 49.515625 72.90625 
L 49.515625 64.59375 
L 19.828125 64.59375 
L 19.828125 46.734375 
Q 21.96875 47.46875 24.109375 47.828125 
Q 26.265625 48.1875 28.421875 48.1875 
Q 40.625 48.1875 47.75 41.5 
Q 54.890625 34.8125 54.890625 23.390625 
Q 54.890625 11.625 47.5625 5.09375 
Q 40.234375 -1.421875 26.90625 -1.421875 
Q 22.3125 -1.421875 17.546875 -0.640625 
Q 12.796875 0.140625 7.71875 1.703125 
L 7.71875 11.625 
Q 12.109375 9.234375 16.796875 8.0625 
Q 21.484375 6.890625 26.703125 6.890625 
Q 35.15625 6.890625 40.078125 11.328125 
Q 45.015625 15.765625 45.015625 23.390625 
Q 45.015625 31 40.078125 35.4375 
Q 35.15625 39.890625 26.703125 39.890625 
Q 22.75 39.890625 18.8125 39.015625 
Q 14.890625 38.140625 10.796875 36.28125 
z
" id="DejaVuSans-53"/>
      </defs>
      <g transform="translate(79.253322 203.598437)scale(0.1 -0.1)">
       <use xlink:href="#DejaVuSans-53"/>
       <use x="63.623047" xlink:href="#DejaVuSans-48"/>
      </g>
     </g>
    </g>
    <g id="xtick_3">
     <g id="line2d_3">
      <g>
       <use style="stroke:#000000;stroke-width:0.8;" x="136.622553" xlink:href="#m525bfb30bc" y="189"/>
      </g>
     </g>
     <g id="text_3">
      <!-- 100 -->
      <defs>
       <path d="M 12.40625 8.296875 
L 28.515625 8.296875 
L 28.515625 63.921875 
L 10.984375 60.40625 
L 10.984375 69.390625 
L 28.421875 72.90625 
L 38.28125 72.90625 
L 38.28125 8.296875 
L 54.390625 8.296875 
L 54.390625 0 
L 12.40625 0 
z
" id="DejaVuSans-49"/>
      </defs>
      <g transform="translate(127.078803 203.598437)scale(0.1 -0.1)">
       <use xlink:href="#DejaVuSans-49"/>
       <use x="63.623047" xlink:href="#DejaVuSans-48"/>
       <use x="127.246094" xlink:href="#DejaVuSans-48"/>
      </g>
     </g>
    </g>
    <g id="xtick_4">
     <g id="line2d_4">
      <g>
       <use style="stroke:#000000;stroke-width:0.8;" x="187.629284" xlink:href="#m525bfb30bc" y="189"/>
      </g>
     </g>
     <g id="text_4">
      <!-- 150 -->
      <g transform="translate(178.085534 203.598437)scale(0.1 -0.1)">
       <use xlink:href="#DejaVuSans-49"/>
       <use x="63.623047" xlink:href="#DejaVuSans-53"/>
       <use x="127.246094" xlink:href="#DejaVuSans-48"/>
      </g>
     </g>
    </g>
    <g id="text_5">
     <!-- Duration (months) -->
     <defs>
      <path d="M 19.671875 64.796875 
L 19.671875 8.109375 
L 31.59375 8.109375 
Q 46.6875 8.109375 53.6875 14.9375 
Q 60.6875 21.78125 60.6875 36.53125 
Q 60.6875 51.171875 53.6875 57.984375 
Q 46.6875 64.796875 31.59375 64.796875 
z
M 9.8125 72.90625 
L 30.078125 72.90625 
Q 51.265625 72.90625 61.171875 64.09375 
Q 71.09375 55.28125 71.09375 36.53125 
Q 71.09375 17.671875 61.125 8.828125 
Q 51.171875 0 30.078125 0 
L 9.8125 0 
z
" id="DejaVuSans-68"/>
      <path d="M 8.5 21.578125 
L 8.5 54.6875 
L 17.484375 54.6875 
L 17.484375 21.921875 
Q 17.484375 14.15625 20.5 10.265625 
Q 23.53125 6.390625 29.59375 6.390625 
Q 36.859375 6.390625 41.078125 11.03125 
Q 45.3125 15.671875 45.3125 23.6875 
L 45.3125 54.6875 
L 54.296875 54.6875 
L 54.296875 0 
L 45.3125 0 
L 45.3125 8.40625 
Q 42.046875 3.421875 37.71875 1 
Q 33.40625 -1.421875 27.6875 -1.421875 
Q 18.265625 -1.421875 13.375 4.4375 
Q 8.5 10.296875 8.5 21.578125 
z
M 31.109375 56 
z
" id="DejaVuSans-117"/>
      <path d="M 41.109375 46.296875 
Q 39.59375 47.171875 37.8125 47.578125 
Q 36.03125 48 33.890625 48 
Q 26.265625 48 22.1875 43.046875 
Q 18.109375 38.09375 18.109375 28.8125 
L 18.109375 0 
L 9.078125 0 
L 9.078125 54.6875 
L 18.109375 54.6875 
L 18.109375 46.1875 
Q 20.953125 51.171875 25.484375 53.578125 
Q 30.03125 56 36.53125 56 
Q 37.453125 56 38.578125 55.875 
Q 39.703125 55.765625 41.0625 55.515625 
z
" id="DejaVuSans-114"/>
      <path d="M 34.28125 27.484375 
Q 23.390625 27.484375 19.1875 25 
Q 14.984375 22.515625 14.984375 16.5 
Q 14.984375 11.71875 18.140625 8.90625 
Q 21.296875 6.109375 26.703125 6.109375 
Q 34.1875 6.109375 38.703125 11.40625 
Q 43.21875 16.703125 43.21875 25.484375 
L 43.21875 27.484375 
z
M 52.203125 31.203125 
L 52.203125 0 
L 43.21875 0 
L 43.21875 8.296875 
Q 40.140625 3.328125 35.546875 0.953125 
Q 30.953125 -1.421875 24.3125 -1.421875 
Q 15.921875 -1.421875 10.953125 3.296875 
Q 6 8.015625 6 15.921875 
Q 6 25.140625 12.171875 29.828125 
Q 18.359375 34.515625 30.609375 34.515625 
L 43.21875 34.515625 
L 43.21875 35.40625 
Q 43.21875 41.609375 39.140625 45 
Q 35.0625 48.390625 27.6875 48.390625 
Q 23 48.390625 18.546875 47.265625 
Q 14.109375 46.140625 10.015625 43.890625 
L 10.015625 52.203125 
Q 14.9375 54.109375 19.578125 55.046875 
Q 24.21875 56 28.609375 56 
Q 40.484375 56 46.34375 49.84375 
Q 52.203125 43.703125 52.203125 31.203125 
z
" id="DejaVuSans-97"/>
      <path d="M 18.3125 70.21875 
L 18.3125 54.6875 
L 36.8125 54.6875 
L 36.8125 47.703125 
L 18.3125 47.703125 
L 18.3125 18.015625 
Q 18.3125 11.328125 20.140625 9.421875 
Q 21.96875 7.515625 27.59375 7.515625 
L 36.8125 7.515625 
L 36.8125 0 
L 27.59375 0 
Q 17.1875 0 13.234375 3.875 
Q 9.28125 7.765625 9.28125 18.015625 
L 9.28125 47.703125 
L 2.6875 47.703125 
L 2.6875 54.6875 
L 9.28125 54.6875 
L 9.28125 70.21875 
z
" id="DejaVuSans-116"/>
      <path d="M 9.421875 54.6875 
L 18.40625 54.6875 
L 18.40625 0 
L 9.421875 0 
z
M 9.421875 75.984375 
L 18.40625 75.984375 
L 18.40625 64.59375 
L 9.421875 64.59375 
z
" id="DejaVuSans-105"/>
      <path d="M 30.609375 48.390625 
Q 23.390625 48.390625 19.1875 42.75 
Q 14.984375 37.109375 14.984375 27.296875 
Q 14.984375 17.484375 19.15625 11.84375 
Q 23.34375 6.203125 30.609375 6.203125 
Q 37.796875 6.203125 41.984375 11.859375 
Q 46.1875 17.53125 46.1875 27.296875 
Q 46.1875 37.015625 41.984375 42.703125 
Q 37.796875 48.390625 30.609375 48.390625 
z
M 30.609375 56 
Q 42.328125 56 49.015625 48.375 
Q 55.71875 40.765625 55.71875 27.296875 
Q 55.71875 13.875 49.015625 6.21875 
Q 42.328125 -1.421875 30.609375 -1.421875 
Q 18.84375 -1.421875 12.171875 6.21875 
Q 5.515625 13.875 5.515625 27.296875 
Q 5.515625 40.765625 12.171875 48.375 
Q 18.84375 56 30.609375 56 
z
" id="DejaVuSans-111"/>
      <path d="M 54.890625 33.015625 
L 54.890625 0 
L 45.90625 0 
L 45.90625 32.71875 
Q 45.90625 40.484375 42.875 44.328125 
Q 39.84375 48.1875 33.796875 48.1875 
Q 26.515625 48.1875 22.3125 43.546875 
Q 18.109375 38.921875 18.109375 30.90625 
L 18.109375 0 
L 9.078125 0 
L 9.078125 54.6875 
L 18.109375 54.6875 
L 18.109375 46.1875 
Q 21.34375 51.125 25.703125 53.5625 
Q 30.078125 56 35.796875 56 
Q 45.21875 56 50.046875 50.171875 
Q 54.890625 44.34375 54.890625 33.015625 
z
" id="DejaVuSans-110"/>
      <path id="DejaVuSans-32"/>
      <path d="M 31 75.875 
Q 24.46875 64.65625 21.28125 53.65625 
Q 18.109375 42.671875 18.109375 31.390625 
Q 18.109375 20.125 21.3125 9.0625 
Q 24.515625 -2 31 -13.1875 
L 23.1875 -13.1875 
Q 15.875 -1.703125 12.234375 9.375 
Q 8.59375 20.453125 8.59375 31.390625 
Q 8.59375 42.28125 12.203125 53.3125 
Q 15.828125 64.359375 23.1875 75.875 
z
" id="DejaVuSans-40"/>
      <path d="M 52 44.1875 
Q 55.375 50.25 60.0625 53.125 
Q 64.75 56 71.09375 56 
Q 79.640625 56 84.28125 50.015625 
Q 88.921875 44.046875 88.921875 33.015625 
L 88.921875 0 
L 79.890625 0 
L 79.890625 32.71875 
Q 79.890625 40.578125 77.09375 44.375 
Q 74.3125 48.1875 68.609375 48.1875 
Q 61.625 48.1875 57.5625 43.546875 
Q 53.515625 38.921875 53.515625 30.90625 
L 53.515625 0 
L 44.484375 0 
L 44.484375 32.71875 
Q 44.484375 40.625 41.703125 44.40625 
Q 38.921875 48.1875 33.109375 48.1875 
Q 26.21875 48.1875 22.15625 43.53125 
Q 18.109375 38.875 18.109375 30.90625 
L 18.109375 0 
L 9.078125 0 
L 9.078125 54.6875 
L 18.109375 54.6875 
L 18.109375 46.1875 
Q 21.1875 51.21875 25.484375 53.609375 
Q 29.78125 56 35.6875 56 
Q 41.65625 56 45.828125 52.96875 
Q 50 49.953125 52 44.1875 
z
" id="DejaVuSans-109"/>
      <path d="M 54.890625 33.015625 
L 54.890625 0 
L 45.90625 0 
L 45.90625 32.71875 
Q 45.90625 40.484375 42.875 44.328125 
Q 39.84375 48.1875 33.796875 48.1875 
Q 26.515625 48.1875 22.3125 43.546875 
Q 18.109375 38.921875 18.109375 30.90625 
L 18.109375 0 
L 9.078125 0 
L 9.078125 75.984375 
L 18.109375 75.984375 
L 18.109375 46.1875 
Q 21.34375 51.125 25.703125 53.5625 
Q 30.078125 56 35.796875 56 
Q 45.21875 56 50.046875 50.171875 
Q 54.890625 44.34375 54.890625 33.015625 
z
" id="DejaVuSans-104"/>
      <path d="M 44.28125 53.078125 
L 44.28125 44.578125 
Q 40.484375 46.53125 36.375 47.5 
Q 32.28125 48.484375 27.875 48.484375 
Q 21.1875 48.484375 17.84375 46.4375 
Q 14.5 44.390625 14.5 40.28125 
Q 14.5 37.15625 16.890625 35.375 
Q 19.28125 33.59375 26.515625 31.984375 
L 29.59375 31.296875 
Q 39.15625 29.25 43.1875 25.515625 
Q 47.21875 21.78125 47.21875 15.09375 
Q 47.21875 7.46875 41.1875 3.015625 
Q 35.15625 -1.421875 24.609375 -1.421875 
Q 20.21875 -1.421875 15.453125 -0.5625 
Q 10.6875 0.296875 5.421875 2 
L 5.421875 11.28125 
Q 10.40625 8.6875 15.234375 7.390625 
Q 20.0625 6.109375 24.8125 6.109375 
Q 31.15625 6.109375 34.5625 8.28125 
Q 37.984375 10.453125 37.984375 14.40625 
Q 37.984375 18.0625 35.515625 20.015625 
Q 33.0625 21.96875 24.703125 23.78125 
L 21.578125 24.515625 
Q 13.234375 26.265625 9.515625 29.90625 
Q 5.8125 33.546875 5.8125 39.890625 
Q 5.8125 47.609375 11.28125 51.796875 
Q 16.75 56 26.8125 56 
Q 31.78125 56 36.171875 55.265625 
Q 40.578125 54.546875 44.28125 53.078125 
z
" id="DejaVuSans-115"/>
      <path d="M 8.015625 75.875 
L 15.828125 75.875 
Q 23.140625 64.359375 26.78125 53.3125 
Q 30.421875 42.28125 30.421875 31.390625 
Q 30.421875 20.453125 26.78125 9.375 
Q 23.140625 -1.703125 15.828125 -13.1875 
L 8.015625 -13.1875 
Q 14.5 -2 17.703125 9.0625 
Q 20.90625 20.125 20.90625 31.390625 
Q 20.90625 42.671875 17.703125 53.65625 
Q 14.5 64.65625 8.015625 75.875 
z
" id="DejaVuSans-41"/>
     </defs>
     <g transform="translate(64.661719 217.276563)scale(0.1 -0.1)">
      <use xlink:href="#DejaVuSans-68"/>
      <use x="77.001953" xlink:href="#DejaVuSans-117"/>
      <use x="140.380859" xlink:href="#DejaVuSans-114"/>
      <use x="181.494141" xlink:href="#DejaVuSans-97"/>
      <use x="242.773438" xlink:href="#DejaVuSans-116"/>
      <use x="281.982422" xlink:href="#DejaVuSans-105"/>
      <use x="309.765625" xlink:href="#DejaVuSans-111"/>
      <use x="370.947266" xlink:href="#DejaVuSans-110"/>
      <use x="434.326172" xlink:href="#DejaVuSans-32"/>
      <use x="466.113281" xlink:href="#DejaVuSans-40"/>
      <use x="505.126953" xlink:href="#DejaVuSans-109"/>
      <use x="602.539062" xlink:href="#DejaVuSans-111"/>
      <use x="663.720703" xlink:href="#DejaVuSans-110"/>
      <use x="727.099609" xlink:href="#DejaVuSans-116"/>
      <use x="766.308594" xlink:href="#DejaVuSans-104"/>
      <use x="829.6875" xlink:href="#DejaVuSans-115"/>
      <use x="881.787109" xlink:href="#DejaVuSans-41"/>
     </g>
    </g>
   </g>
   <g id="matplotlib.axis_2">
    <g id="ytick_1">
     <g id="line2d_5">
      <defs>
       <path d="M 0 0 
L -3.5 0 
" id="mb64944838d" style="stroke:#000000;stroke-width:0.8;"/>
      </defs>
      <g>
       <use style="stroke:#000000;stroke-width:0.8;" x="27" xlink:href="#mb64944838d" y="181.587273"/>
      </g>
     </g>
     <g id="text_6">
      <!-- 0.0 -->
      <defs>
       <path d="M 10.6875 12.40625 
L 21 12.40625 
L 21 0 
L 10.6875 0 
z
" id="DejaVuSans-46"/>
      </defs>
      <g transform="translate(4.096875 185.386491)scale(0.1 -0.1)">
       <use xlink:href="#DejaVuSans-48"/>
       <use x="63.623047" xlink:href="#DejaVuSans-46"/>
       <use x="95.410156" xlink:href="#DejaVuSans-48"/>
      </g>
     </g>
    </g>
    <g id="ytick_2">
     <g id="line2d_6">
      <g>
       <use style="stroke:#000000;stroke-width:0.8;" x="27" xlink:href="#mb64944838d" y="151.936364"/>
      </g>
     </g>
     <g id="text_7">
      <!-- 0.2 -->
      <defs>
       <path d="M 19.1875 8.296875 
L 53.609375 8.296875 
L 53.609375 0 
L 7.328125 0 
L 7.328125 8.296875 
Q 12.9375 14.109375 22.625 23.890625 
Q 32.328125 33.6875 34.8125 36.53125 
Q 39.546875 41.84375 41.421875 45.53125 
Q 43.3125 49.21875 43.3125 52.78125 
Q 43.3125 58.59375 39.234375 62.25 
Q 35.15625 65.921875 28.609375 65.921875 
Q 23.96875 65.921875 18.8125 64.3125 
Q 13.671875 62.703125 7.8125 59.421875 
L 7.8125 69.390625 
Q 13.765625 71.78125 18.9375 73 
Q 24.125 74.21875 28.421875 74.21875 
Q 39.75 74.21875 46.484375 68.546875 
Q 53.21875 62.890625 53.21875 53.421875 
Q 53.21875 48.921875 51.53125 44.890625 
Q 49.859375 40.875 45.40625 35.40625 
Q 44.1875 33.984375 37.640625 27.21875 
Q 31.109375 20.453125 19.1875 8.296875 
z
" id="DejaVuSans-50"/>
      </defs>
      <g transform="translate(4.096875 155.735582)scale(0.1 -0.1)">
       <use xlink:href="#DejaVuSans-48"/>
       <use x="63.623047" xlink:href="#DejaVuSans-46"/>
       <use x="95.410156" xlink:href="#DejaVuSans-50"/>
      </g>
     </g>
    </g>
    <g id="ytick_3">
     <g id="line2d_7">
      <g>
       <use style="stroke:#000000;stroke-width:0.8;" x="27" xlink:href="#mb64944838d" y="122.285455"/>
      </g>
     </g>
     <g id="text_8">
      <!-- 0.4 -->
      <defs>
       <path d="M 37.796875 64.3125 
L 12.890625 25.390625 
L 37.796875 25.390625 
z
M 35.203125 72.90625 
L 47.609375 72.90625 
L 47.609375 25.390625 
L 58.015625 25.390625 
L 58.015625 17.1875 
L 47.609375 17.1875 
L 47.609375 0 
L 37.796875 0 
L 37.796875 17.1875 
L 4.890625 17.1875 
L 4.890625 26.703125 
z
" id="DejaVuSans-52"/>
      </defs>
      <g transform="translate(4.096875 126.084673)scale(0.1 -0.1)">
       <use xlink:href="#DejaVuSans-48"/>
       <use x="63.623047" xlink:href="#DejaVuSans-46"/>
       <use x="95.410156" xlink:href="#DejaVuSans-52"/>
      </g>
     </g>
    </g>
    <g id="ytick_4">
     <g id="line2d_8">
      <g>
       <use style="stroke:#000000;stroke-width:0.8;" x="27" xlink:href="#mb64944838d" y="92.634545"/>
      </g>
     </g>
     <g id="text_9">
      <!-- 0.6 -->
      <defs>
       <path d="M 33.015625 40.375 
Q 26.375 40.375 22.484375 35.828125 
Q 18.609375 31.296875 18.609375 23.390625 
Q 18.609375 15.53125 22.484375 10.953125 
Q 26.375 6.390625 33.015625 6.390625 
Q 39.65625 6.390625 43.53125 10.953125 
Q 47.40625 15.53125 47.40625 23.390625 
Q 47.40625 31.296875 43.53125 35.828125 
Q 39.65625 40.375 33.015625 40.375 
z
M 52.59375 71.296875 
L 52.59375 62.3125 
Q 48.875 64.0625 45.09375 64.984375 
Q 41.3125 65.921875 37.59375 65.921875 
Q 27.828125 65.921875 22.671875 59.328125 
Q 17.53125 52.734375 16.796875 39.40625 
Q 19.671875 43.65625 24.015625 45.921875 
Q 28.375 48.1875 33.59375 48.1875 
Q 44.578125 48.1875 50.953125 41.515625 
Q 57.328125 34.859375 57.328125 23.390625 
Q 57.328125 12.15625 50.6875 5.359375 
Q 44.046875 -1.421875 33.015625 -1.421875 
Q 20.359375 -1.421875 13.671875 8.265625 
Q 6.984375 17.96875 6.984375 36.375 
Q 6.984375 53.65625 15.1875 63.9375 
Q 23.390625 74.21875 37.203125 74.21875 
Q 40.921875 74.21875 44.703125 73.484375 
Q 48.484375 72.75 52.59375 71.296875 
z
" id="DejaVuSans-54"/>
      </defs>
      <g transform="translate(4.096875 96.433764)scale(0.1 -0.1)">
       <use xlink:href="#DejaVuSans-48"/>
       <use x="63.623047" xlink:href="#DejaVuSans-46"/>
       <use x="95.410156" xlink:href="#DejaVuSans-54"/>
      </g>
     </g>
    </g>
    <g id="ytick_5">
     <g id="line2d_9">
      <g>
       <use style="stroke:#000000;stroke-width:0.8;" x="27" xlink:href="#mb64944838d" y="62.983636"/>
      </g>
     </g>
     <g id="text_10">
      <!-- 0.8 -->
      <defs>
       <path d="M 31.78125 34.625 
Q 24.75 34.625 20.71875 30.859375 
Q 16.703125 27.09375 16.703125 20.515625 
Q 16.703125 13.921875 20.71875 10.15625 
Q 24.75 6.390625 31.78125 6.390625 
Q 38.8125 6.390625 42.859375 10.171875 
Q 46.921875 13.96875 46.921875 20.515625 
Q 46.921875 27.09375 42.890625 30.859375 
Q 38.875 34.625 31.78125 34.625 
z
M 21.921875 38.8125 
Q 15.578125 40.375 12.03125 44.71875 
Q 8.5 49.078125 8.5 55.328125 
Q 8.5 64.0625 14.71875 69.140625 
Q 20.953125 74.21875 31.78125 74.21875 
Q 42.671875 74.21875 48.875 69.140625 
Q 55.078125 64.0625 55.078125 55.328125 
Q 55.078125 49.078125 51.53125 44.71875 
Q 48 40.375 41.703125 38.8125 
Q 48.828125 37.15625 52.796875 32.3125 
Q 56.78125 27.484375 56.78125 20.515625 
Q 56.78125 9.90625 50.3125 4.234375 
Q 43.84375 -1.421875 31.78125 -1.421875 
Q 19.734375 -1.421875 13.25 4.234375 
Q 6.78125 9.90625 6.78125 20.515625 
Q 6.78125 27.484375 10.78125 32.3125 
Q 14.796875 37.15625 21.921875 38.8125 
z
M 18.3125 54.390625 
Q 18.3125 48.734375 21.84375 45.5625 
Q 25.390625 42.390625 31.78125 42.390625 
Q 38.140625 42.390625 41.71875 45.5625 
Q 45.3125 48.734375 45.3125 54.390625 
Q 45.3125 60.0625 41.71875 63.234375 
Q 38.140625 66.40625 31.78125 66.40625 
Q 25.390625 66.40625 21.84375 63.234375 
Q 18.3125 60.0625 18.3125 54.390625 
z
" id="DejaVuSans-56"/>
      </defs>
      <g transform="translate(4.096875 66.782855)scale(0.1 -0.1)">
       <use xlink:href="#DejaVuSans-48"/>
       <use x="63.623047" xlink:href="#DejaVuSans-46"/>
       <use x="95.410156" xlink:href="#DejaVuSans-56"/>
      </g>
     </g>
    </g>
    <g id="ytick_6">
     <g id="line2d_10">
      <g>
       <use style="stroke:#000000;stroke-width:0.8;" x="27" xlink:href="#mb64944838d" y="33.332727"/>
      </g>
     </g>
     <g id="text_11">
      <!-- 1.0 -->
      <g transform="translate(4.096875 37.131946)scale(0.1 -0.1)">
       <use xlink:href="#DejaVuSans-49"/>
       <use x="63.623047" xlink:href="#DejaVuSans-46"/>
       <use x="95.410156" xlink:href="#DejaVuSans-48"/>
      </g>
     </g>
    </g>
    <g id="text_12">
     <!-- Probability -->
     <defs>
      <path d="M 19.671875 64.796875 
L 19.671875 37.40625 
L 32.078125 37.40625 
Q 38.96875 37.40625 42.71875 40.96875 
Q 46.484375 44.53125 46.484375 51.125 
Q 46.484375 57.671875 42.71875 61.234375 
Q 38.96875 64.796875 32.078125 64.796875 
z
M 9.8125 72.90625 
L 32.078125 72.90625 
Q 44.34375 72.90625 50.609375 67.359375 
Q 56.890625 61.8125 56.890625 51.125 
Q 56.890625 40.328125 50.609375 34.8125 
Q 44.34375 29.296875 32.078125 29.296875 
L 19.671875 29.296875 
L 19.671875 0 
L 9.8125 0 
z
" id="DejaVuSans-80"/>
      <path d="M 48.6875 27.296875 
Q 48.6875 37.203125 44.609375 42.84375 
Q 40.53125 48.484375 33.40625 48.484375 
Q 26.265625 48.484375 22.1875 42.84375 
Q 18.109375 37.203125 18.109375 27.296875 
Q 18.109375 17.390625 22.1875 11.75 
Q 26.265625 6.109375 33.40625 6.109375 
Q 40.53125 6.109375 44.609375 11.75 
Q 48.6875 17.390625 48.6875 27.296875 
z
M 18.109375 46.390625 
Q 20.953125 51.265625 25.265625 53.625 
Q 29.59375 56 35.59375 56 
Q 45.5625 56 51.78125 48.09375 
Q 58.015625 40.1875 58.015625 27.296875 
Q 58.015625 14.40625 51.78125 6.484375 
Q 45.5625 -1.421875 35.59375 -1.421875 
Q 29.59375 -1.421875 25.265625 0.953125 
Q 20.953125 3.328125 18.109375 8.203125 
L 18.109375 0 
L 9.078125 0 
L 9.078125 75.984375 
L 18.109375 75.984375 
z
" id="DejaVuSans-98"/>
      <path d="M 9.421875 75.984375 
L 18.40625 75.984375 
L 18.40625 0 
L 9.421875 0 
z
" id="DejaVuSans-108"/>
      <path d="M 32.171875 -5.078125 
Q 28.375 -14.84375 24.75 -17.8125 
Q 21.140625 -20.796875 15.09375 -20.796875 
L 7.90625 -20.796875 
L 7.90625 -13.28125 
L 13.1875 -13.28125 
Q 16.890625 -13.28125 18.9375 -11.515625 
Q 21 -9.765625 23.484375 -3.21875 
L 25.09375 0.875 
L 2.984375 54.6875 
L 12.5 54.6875 
L 29.59375 11.921875 
L 46.6875 54.6875 
L 56.203125 54.6875 
z
" id="DejaVuSans-121"/>
     </defs>
     <g transform="translate(-1.982813 134.086563)rotate(-90)scale(0.1 -0.1)">
      <use xlink:href="#DejaVuSans-80"/>
      <use x="60.287109" xlink:href="#DejaVuSans-114"/>
      <use x="101.369141" xlink:href="#DejaVuSans-111"/>
      <use x="162.550781" xlink:href="#DejaVuSans-98"/>
      <use x="226.027344" xlink:href="#DejaVuSans-97"/>
      <use x="287.306641" xlink:href="#DejaVuSans-98"/>
      <use x="350.783203" xlink:href="#DejaVuSans-105"/>
      <use x="378.566406" xlink:href="#DejaVuSans-108"/>
      <use x="406.349609" xlink:href="#DejaVuSans-105"/>
      <use x="434.132812" xlink:href="#DejaVuSans-116"/>
      <use x="473.341797" xlink:href="#DejaVuSans-121"/>
     </g>
    </g>
   </g>
   <g id="line2d_11">
    <path clip-path="url(#p1a23eae9b2)" d="M 34.609091 33.332727 
L 34.709696 33.332727 
L 34.810301 35.98013 
L 34.910906 35.98013 
L 34.910906 37.315975 
L 35.816351 37.315975 
L 35.816351 38.664305 
L 36.051096 38.664305 
L 36.051096 40.012635 
L 36.151701 40.012635 
L 36.218771 40.012635 
L 36.218771 41.387146 
L 37.358961 41.387146 
L 37.358961 42.803309 
L 38.331476 42.803309 
L 38.331476 44.248975 
L 38.767431 44.248975 
L 38.767431 45.710021 
L 39.236921 45.710021 
L 39.236921 47.171067 
L 40.075295 47.171067 
L 40.075295 50.191656 
L 40.37711 50.191656 
L 40.37711 51.70195 
L 40.544785 51.70195 
L 40.544785 53.212244 
L 41.45023 53.212244 
L 41.45023 54.740519 
L 42.489815 54.740519 
L 42.489815 56.28743 
L 45.40736 56.28743 
L 45.40736 57.853678 
L 45.977455 57.853678 
L 45.977455 59.419926 
L 47.117645 59.419926 
L 47.117645 61.027391 
L 47.452995 61.027391 
L 47.452995 62.634856 
L 48.995605 62.634856 
L 48.995605 64.242322 
L 49.16328 64.242322 
L 49.16328 65.849787 
L 52.282035 65.849787 
L 52.282035 67.577212 
L 57.580564 67.577212 
L 57.580564 69.416084 
L 59.056104 69.416084 
L 59.056104 71.285604 
L 59.894479 71.285604 
L 59.894479 73.255276 
L 60.062154 73.255276 
L 60.062154 75.224949 
L 61.604764 75.224949 
L 61.604764 77.310485 
L 68.110553 77.310485 
L 68.110553 79.735526 
L 83.000092 79.735526 
L 83.000092 83.021066 
L 98.694471 83.021066 
L 98.694471 86.671667 
L 125.153584 86.671667 
L 125.153584 91.667225 
L 140.344938 91.667225 
L 140.344938 97.661895 
L 140.680288 97.661895 
L 140.680288 103.656565 
L 149.734737 103.656565 
L 149.734737 112.315532 
L 186.790909 112.315532 
L 186.790909 112.315532 
" style="fill:none;stroke:#1f77b4;stroke-linecap:square;stroke-width:1.5;"/>
   </g>
   <g id="line2d_12">
    <path clip-path="url(#p1a23eae9b2)" d="M 34.609091 33.332727 
L 34.642626 33.332727 
L 34.743231 39.627947 
L 34.810301 39.627947 
L 34.910906 43.233264 
L 34.977976 43.233264 
L 35.078581 47.739909 
L 35.112116 47.739909 
L 35.212721 49.993231 
L 35.246256 49.993231 
L 35.346861 53.147883 
L 35.380396 53.147883 
L 35.447466 54.499877 
L 35.514536 54.499877 
L 35.615141 57.654528 
L 35.715746 57.654528 
L 35.782816 59.916075 
L 35.883421 59.916075 
L 35.916956 61.732063 
L 36.051096 61.732063 
L 36.084631 62.640057 
L 36.118166 62.640057 
L 36.285841 62.640057 
L 36.285841 63.095793 
L 36.352911 63.095793 
L 36.453516 63.095793 
L 36.487051 64.010785 
L 36.554121 64.010785 
L 36.688261 64.010785 
L 36.788866 65.388635 
L 36.822401 65.388635 
L 36.923006 67.225767 
L 37.124216 67.225767 
L 37.157751 68.144334 
L 37.291891 68.144334 
L 37.392496 70.450085 
L 37.426031 70.450085 
L 37.459566 71.372385 
L 37.660776 71.372385 
L 37.694311 72.294685 
L 37.861986 72.294685 
L 37.895521 74.147102 
L 38.029661 74.147102 
L 38.096731 75.536415 
L 38.465616 75.536415 
L 38.465616 75.999519 
L 38.733896 75.999519 
L 38.733896 76.464663 
L 38.868036 76.464663 
L 38.868036 76.929807 
L 39.337526 76.929807 
L 39.404596 77.868439 
L 39.807016 77.868439 
L 39.90762 80.215019 
L 40.10883 80.215019 
L 40.10883 80.684335 
L 40.343575 80.684335 
L 40.343575 81.153651 
L 40.477715 81.153651 
L 40.477715 81.622967 
L 40.57832 81.622967 
L 40.91367 81.622967 
L 40.98074 83.051029 
L 41.215485 83.051029 
L 41.215485 83.527049 
L 41.416695 83.527049 
L 41.5173 84.962077 
L 41.550835 84.962077 
L 41.550835 85.440419 
L 41.684975 85.440419 
L 41.684975 85.918762 
L 41.752045 85.918762 
L 42.32214 85.918762 
L 42.32214 86.885111 
L 42.59042 86.885111 
L 42.59042 87.368285 
L 42.8587 87.368285 
L 42.959305 88.339615 
L 43.361725 88.339615 
L 43.361725 88.827822 
L 43.59647 88.827822 
L 43.59647 89.31603 
L 43.898285 89.31603 
L 43.99889 90.292445 
L 44.13303 90.292445 
L 44.233635 91.26886 
L 44.501915 91.26886 
L 44.501915 91.757068 
L 44.80373 91.757068 
L 44.837265 92.733483 
L 45.00494 92.733483 
L 45.00494 93.224388 
L 45.13908 93.224388 
L 45.13908 93.715293 
L 45.47443 93.715293 
L 45.47443 94.206198 
L 45.5415 94.206198 
L 45.843315 94.206198 
L 45.87685 95.196376 
L 46.044525 95.196376 
L 46.14513 96.192261 
L 46.245735 96.192261 
L 46.245735 96.691647 
L 46.514015 96.691647 
L 46.61462 97.690419 
L 47.050575 97.690419 
L 47.15118 99.197548 
L 47.28532 99.197548 
L 47.28532 99.703007 
L 47.587135 99.703007 
L 47.587135 100.208465 
L 47.721275 100.208465 
L 47.788345 101.219382 
L 48.391975 101.219382 
L 48.49258 102.243177 
L 48.526115 102.243177 
L 48.526115 102.755074 
L 49.02914 102.755074 
L 49.09621 104.321277 
L 49.16328 104.321277 
L 49.16328 104.843345 
L 49.398025 104.843345 
L 49.398025 105.365412 
L 49.69984 105.365412 
L 49.76691 106.931615 
L 51.10831 106.931615 
L 51.10831 107.464869 
L 51.208915 107.464869 
L 51.477195 107.464869 
L 51.51073 108.546948 
L 51.84608 108.546948 
L 51.84608 109.087988 
L 52.147895 109.087988 
L 52.147895 109.633095 
L 52.349105 109.633095 
L 52.349105 110.182364 
L 52.885664 110.182364 
L 52.885664 110.731632 
L 53.623434 110.731632 
L 53.690504 112.392311 
L 53.824644 112.392311 
L 53.858179 113.499431 
L 54.059389 113.499431 
L 54.059389 114.05299 
L 54.461809 114.05299 
L 54.461809 114.60655 
L 55.400789 114.60655 
L 55.400789 115.16011 
L 55.601999 115.16011 
L 55.601999 115.713669 
L 55.702604 115.713669 
L 56.071489 115.713669 
L 56.071489 116.276692 
L 56.272699 116.276692 
L 56.306234 117.402736 
L 56.608049 117.402736 
L 56.608049 117.965758 
L 57.245214 117.965758 
L 57.245214 118.528781 
L 57.379354 118.528781 
L 57.379354 119.091803 
L 58.787824 119.091803 
L 58.787824 119.654825 
L 59.961549 119.654825 
L 59.961549 120.228274 
L 60.095689 120.228274 
L 60.196294 121.375171 
L 60.699319 121.375171 
L 60.732854 122.522068 
L 60.799924 122.522068 
L 62.543744 122.522068 
L 62.543744 123.106872 
L 64.790589 123.106872 
L 64.790589 123.703611 
L 65.696033 123.703611 
L 65.696033 124.30035 
L 66.098453 124.30035 
L 66.098453 124.90337 
L 66.165523 124.90337 
L 66.567943 124.90337 
L 66.567943 125.512874 
L 66.802688 125.512874 
L 66.802688 126.122379 
L 67.439853 126.122379 
L 67.439853 126.74558 
L 67.875808 126.74558 
L 67.875808 127.368781 
L 68.211158 127.368781 
L 68.211158 127.999228 
L 69.418418 127.999228 
L 69.418418 128.629676 
L 69.586093 128.629676 
L 69.586093 129.890571 
L 71.296378 129.890571 
L 71.296378 130.528802 
L 72.168288 130.528802 
L 72.168288 131.183398 
L 72.335963 131.183398 
L 72.335963 131.837993 
L 72.503638 131.837993 
L 72.503638 132.492589 
L 74.582808 132.492589 
L 74.582808 133.156031 
L 74.851088 133.156031 
L 74.851088 133.819473 
L 76.494303 133.819473 
L 76.494303 134.50187 
L 76.661978 134.50187 
L 76.661978 135.184267 
L 79.948407 135.184267 
L 79.948407 135.866664 
L 79.981942 135.866664 
L 80.451432 135.866664 
L 80.451432 136.559401 
L 85.984707 136.559401 
L 85.984707 137.274129 
L 86.655407 137.274129 
L 86.655407 138.000574 
L 86.823082 138.000574 
L 86.823082 138.727019 
L 88.365692 138.727019 
L 88.365692 139.453464 
L 89.774162 139.453464 
L 89.774162 140.192653 
L 90.713142 140.192653 
L 90.713142 140.931843 
L 91.182632 140.931843 
L 91.182632 141.671033 
L 91.283237 141.671033 
L 93.764826 141.671033 
L 93.798361 143.236375 
L 93.831896 143.236375 
L 94.938551 143.236375 
L 94.938551 144.088617 
L 96.212881 144.088617 
L 96.212881 144.960679 
L 98.426191 144.960679 
L 98.426191 145.854011 
L 99.096891 145.854011 
L 99.096891 146.770248 
L 100.471826 146.770248 
L 100.471826 147.737388 
L 103.288766 147.737388 
L 103.288766 148.795197 
L 104.46249 148.795197 
L 104.46249 149.888266 
L 104.764305 149.888266 
L 104.764305 150.981335 
L 105.13319 150.981335 
L 105.13319 152.074404 
L 109.22446 152.074404 
L 109.22446 153.304107 
L 117.138719 153.304107 
L 117.138719 154.53381 
L 117.239324 154.53381 
L 119.419099 154.53381 
L 119.419099 155.82207 
L 122.906739 155.82207 
L 122.906739 157.178133 
L 129.412529 157.178133 
L 129.412529 158.613965 
L 133.436728 158.613965 
L 133.436728 160.049797 
L 138.031023 160.049797 
L 138.031023 161.706526 
L 149.097572 161.706526 
L 149.097572 163.915498 
L 155.368617 163.915498 
L 155.368617 167.449853 
L 165.496186 167.449853 
L 165.496186 170.984208 
L 176.763945 170.984208 
L 176.763945 176.28574 
L 186.086674 176.28574 
L 186.086674 181.587273 
L 186.086674 181.587273 
" style="fill:none;stroke:#ff7f0e;stroke-linecap:square;stroke-width:1.5;"/>
   </g>
   <g id="patch_3">
    <path d="M 27 189 
L 27 25.92 
" style="fill:none;stroke:#000000;stroke-linecap:square;stroke-linejoin:miter;stroke-width:0.8;"/>
   </g>
   <g id="patch_4">
    <path d="M 27 189 
L 194.4 189 
" style="fill:none;stroke:#000000;stroke-linecap:square;stroke-linejoin:miter;stroke-width:0.8;"/>
   </g>
   <g id="text_13">
    <!-- Liver related events -->
    <defs>
     <path d="M 9.8125 72.90625 
L 19.671875 72.90625 
L 19.671875 8.296875 
L 55.171875 8.296875 
L 55.171875 0 
L 9.8125 0 
z
" id="DejaVuSans-76"/>
     <path d="M 2.984375 54.6875 
L 12.5 54.6875 
L 29.59375 8.796875 
L 46.6875 54.6875 
L 56.203125 54.6875 
L 35.6875 0 
L 23.484375 0 
z
" id="DejaVuSans-118"/>
     <path d="M 56.203125 29.59375 
L 56.203125 25.203125 
L 14.890625 25.203125 
Q 15.484375 15.921875 20.484375 11.0625 
Q 25.484375 6.203125 34.421875 6.203125 
Q 39.59375 6.203125 44.453125 7.46875 
Q 49.3125 8.734375 54.109375 11.28125 
L 54.109375 2.78125 
Q 49.265625 0.734375 44.1875 -0.34375 
Q 39.109375 -1.421875 33.890625 -1.421875 
Q 20.796875 -1.421875 13.15625 6.1875 
Q 5.515625 13.8125 5.515625 26.8125 
Q 5.515625 40.234375 12.765625 48.109375 
Q 20.015625 56 32.328125 56 
Q 43.359375 56 49.78125 48.890625 
Q 56.203125 41.796875 56.203125 29.59375 
z
M 47.21875 32.234375 
Q 47.125 39.59375 43.09375 43.984375 
Q 39.0625 48.390625 32.421875 48.390625 
Q 24.90625 48.390625 20.390625 44.140625 
Q 15.875 39.890625 15.1875 32.171875 
z
" id="DejaVuSans-101"/>
     <path d="M 45.40625 46.390625 
L 45.40625 75.984375 
L 54.390625 75.984375 
L 54.390625 0 
L 45.40625 0 
L 45.40625 8.203125 
Q 42.578125 3.328125 38.25 0.953125 
Q 33.9375 -1.421875 27.875 -1.421875 
Q 17.96875 -1.421875 11.734375 6.484375 
Q 5.515625 14.40625 5.515625 27.296875 
Q 5.515625 40.1875 11.734375 48.09375 
Q 17.96875 56 27.875 56 
Q 33.9375 56 38.25 53.625 
Q 42.578125 51.265625 45.40625 46.390625 
z
M 14.796875 27.296875 
Q 14.796875 17.390625 18.875 11.75 
Q 22.953125 6.109375 30.078125 6.109375 
Q 37.203125 6.109375 41.296875 11.75 
Q 45.40625 17.390625 45.40625 27.296875 
Q 45.40625 37.203125 41.296875 42.84375 
Q 37.203125 48.484375 30.078125 48.484375 
Q 22.953125 48.484375 18.875 42.84375 
Q 14.796875 37.203125 14.796875 27.296875 
z
" id="DejaVuSans-100"/>
    </defs>
    <g transform="translate(40.580781 19.92)scale(0.14 -0.14)">
     <use xlink:href="#DejaVuSans-76"/>
     <use x="55.712891" xlink:href="#DejaVuSans-105"/>
     <use x="83.496094" xlink:href="#DejaVuSans-118"/>
     <use x="142.675781" xlink:href="#DejaVuSans-101"/>
     <use x="204.199219" xlink:href="#DejaVuSans-114"/>
     <use x="245.3125" xlink:href="#DejaVuSans-32"/>
     <use x="277.099609" xlink:href="#DejaVuSans-114"/>
     <use x="318.181641" xlink:href="#DejaVuSans-101"/>
     <use x="379.705078" xlink:href="#DejaVuSans-108"/>
     <use x="407.488281" xlink:href="#DejaVuSans-97"/>
     <use x="468.767578" xlink:href="#DejaVuSans-116"/>
     <use x="507.976562" xlink:href="#DejaVuSans-101"/>
     <use x="569.5" xlink:href="#DejaVuSans-100"/>
     <use x="632.976562" xlink:href="#DejaVuSans-32"/>
     <use x="664.763672" xlink:href="#DejaVuSans-101"/>
     <use x="726.287109" xlink:href="#DejaVuSans-118"/>
     <use x="785.466797" xlink:href="#DejaVuSans-101"/>
     <use x="846.990234" xlink:href="#DejaVuSans-110"/>
     <use x="910.369141" xlink:href="#DejaVuSans-116"/>
     <use x="949.578125" xlink:href="#DejaVuSans-115"/>
    </g>
   </g>
  </g>
 </g>
 <defs>
  <clipPath id="p1a23eae9b2">
   <rect height="163.08" width="167.4" x="27" y="25.92"/>
  </clipPath>
 </defs>
</svg>
